# MagicaVoxel @ Ephtracy

# group
o 

# material
mtllib chr_Robot.mtl
usemtl palette

# normals
vn -1 0 0
vn 1 0 0
vn 0 0 1
vn 0 0 -1
vn 0 -1 0
vn 0 1 0

# texcoords
vt 0.0957031 0.5
vt 0.0996094 0.5
vt 0.107422 0.5
vt 0.162109 0.5
vt 0.283203 0.5
vt 0.287109 0.5
vt 0.345703 0.5
vt 0.349609 0.5
vt 0.353516 0.5
vt 0.357422 0.5
vt 0.361328 0.5
vt 0.365234 0.5
vt 0.990234 0.5

# verts
v -0.3 0.1 0.1
v -0.3 0.1 -2.98023e-008
v -0.3 0.2 0.1
v -0.3 0.2 -2.98023e-008
v -0.3 0.3 -2.98023e-008
v -0.3 0.3 -0.1
v -0.3 0.4 0.1
v -0.3 0.4 -2.98023e-008
v -0.3 0.4 -0.1
v -0.3 0.5 -2.98023e-008
v -0.3 0.5 -0.1
v -0.3 0.6 -2.98023e-008
v -0.3 0.6 -0.1
v -0.3 0.7 0.1
v -0.3 0.7 -2.98023e-008
v -0.3 0.7 -0.1
v -0.3 0.7 -0.3
v -0.3 0.8 0.2
v -0.3 0.8 0.1
v -0.3 0.8 -0.1
v -0.3 0.9 -2.98023e-008
v -0.3 0.9 -0.1
v -0.3 0.9 -0.2
v -0.3 0.9 -0.3
v -0.3 1 0.1
v -0.3 1 -2.98023e-008
v -0.3 1 -0.2
v -0.3 1 -0.3
v -0.3 1.1 0.2
v -0.3 1.1 -2.98023e-008
v -0.3 1.1 -0.1
v -0.3 1.2 -0.1
v -0.3 1.2 -0.2
v -0.3 1.3 -0.2
v -0.3 1.3 -0.3
v -0.3 1.4 -0.2
v -0.3 1.4 -0.3
v -0.2 0 -2.98023e-008
v -0.2 0 -0.1
v -0.2 0.1 -2.98023e-008
v -0.2 0.1 -0.1
v -0.2 0.2 -2.98023e-008
v -0.2 0.3 -2.98023e-008
v -0.2 0.3 -0.1
v -0.2 0.4 0.1
v -0.2 0.4 -2.98023e-008
v -0.2 0.4 -0.1
v -0.2 0.4 -0.2
v -0.2 0.5 -2.98023e-008
v -0.2 0.5 -0.1
v -0.2 0.6 -2.98023e-008
v -0.2 0.6 -0.1
v -0.2 0.7 0.2
v -0.2 0.7 0.1
v -0.2 0.7 -2.98023e-008
v -0.2 0.7 -0.1
v -0.2 0.7 -0.2
v -0.2 0.8 0.2
v -0.2 0.8 0.1
v -0.2 0.9 -0.2
v -0.2 0.9 -0.3
v -0.2 1 0.3
v -0.2 1 0.2
v -0.2 1 -0.2
v -0.2 1 -0.3
v -0.2 1.1 0.2
v -0.2 1.1 -2.98023e-008
v -0.2 1.1 -0.1
v -0.2 1.2 0.3
v -0.2 1.2 -0.1
v -0.1 0.3 0.1
v -0.1 0.3 -2.98023e-008
v -0.1 0.3 -0.1
v -0.1 0.3 -0.2
v -0.1 0.4 0.1
v -0.1 0.4 -2.98023e-008
v -0.1 0.4 -0.1
v -0.1 0.4 -0.2
v -0.1 0.4 -0.3
v -0.1 0.7 -0.2
v -0.1 0.7 -0.3
v -0.1 1 -0.2
v -0.1 1 -0.3
v -0.1 1.1 -0.1
v -0.1 1.1 -0.2
v -0.1 1.1 -0.3
v -0.1 1.2 -0.1
v -0.1 1.2 -0.2
v 0.1 0 -2.98023e-008
v 0.1 0 -0.1
v 0.1 0.1 -2.98023e-008
v 0.1 0.1 -0.1
v 0.1 0.3 -2.98023e-008
v 0.1 0.3 -0.1
v 0.1 0.7 0.2
v 0.1 0.7 0.1
v 0.1 1 0.3
v 0.1 1 0.2
v 0.1 1 0.1
v 0.1 1.1 0.2
v 0.1 1.2 0.3
v 0.1 1.2 0.2
v 0.2 1 -0.2
v 0.2 1 -0.3
v 0.2 1.1 -0.1
v 0.2 1.1 -0.2
v 0.2 1.2 -0.1
v 0.2 1.2 -0.2
v 0.2 1.3 -0.2
v 0.2 1.3 -0.3
v 0.2 1.4 -0.2
v 0.2 1.4 -0.3
v -0.2 0.1 0.1
v -0.2 0.1 -2.98023e-008
v -0.2 0.2 0.1
v -0.2 0.2 -2.98023e-008
v -0.2 0.3 -2.98023e-008
v -0.2 0.4 0.1
v -0.2 0.4 -2.98023e-008
v -0.2 1 -0.2
v -0.2 1 -0.3
v -0.2 1.1 -0.1
v -0.2 1.1 -0.2
v -0.2 1.2 -0.1
v -0.2 1.2 -0.2
v -0.2 1.3 -0.2
v -0.2 1.3 -0.3
v -0.2 1.4 -0.2
v -0.2 1.4 -0.3
v -0.1 0 -2.98023e-008
v -0.1 0 -0.1
v -0.1 0.1 -2.98023e-008
v -0.1 0.1 -0.1
v -0.1 0.3 -2.98023e-008
v -0.1 0.3 -0.1
v -0.1 0.7 0.2
v -0.1 0.7 0.1
v -0.1 1 0.3
v -0.1 1 0.2
v -0.1 1 0.1
v -0.1 1.1 0.2
v -0.1 1.2 0.3
v -0.1 1.2 0.2
v 0.1 0.3 0.1
v 0.1 0.3 -2.98023e-008
v 0.1 0.3 -0.1
v 0.1 0.3 -0.2
v 0.1 0.4 0.1
v 0.1 0.4 -2.98023e-008
v 0.1 0.4 -0.1
v 0.1 0.4 -0.2
v 0.1 0.4 -0.3
v 0.1 0.7 -0.2
v 0.1 0.7 -0.3
v 0.1 1 -0.2
v 0.1 1 -0.3
v 0.1 1.1 -0.1
v 0.1 1.1 -0.2
v 0.1 1.1 -0.3
v 0.1 1.2 -0.1
v 0.1 1.2 -0.2
v 0.2 0 -2.98023e-008
v 0.2 0 -0.1
v 0.2 0.1 -2.98023e-008
v 0.2 0.1 -0.1
v 0.2 0.3 -2.98023e-008
v 0.2 0.3 -0.1
v 0.2 0.4 0.1
v 0.2 0.4 -2.98023e-008
v 0.2 0.4 -0.1
v 0.2 0.4 -0.2
v 0.2 0.5 -2.98023e-008
v 0.2 0.5 -0.1
v 0.2 0.6 -2.98023e-008
v 0.2 0.6 -0.1
v 0.2 0.7 0.2
v 0.2 0.7 0.1
v 0.2 0.7 -2.98023e-008
v 0.2 0.7 -0.1
v 0.2 0.7 -0.2
v 0.2 0.8 0.2
v 0.2 0.8 0.1
v 0.2 0.9 -0.2
v 0.2 0.9 -0.3
v 0.2 1 0.3
v 0.2 1 0.2
v 0.2 1 -0.2
v 0.2 1 -0.3
v 0.2 1.1 0.2
v 0.2 1.1 -2.98023e-008
v 0.2 1.1 -0.1
v 0.2 1.2 0.3
v 0.2 1.2 -0.1
v 0.3 0.3 -2.98023e-008
v 0.3 0.3 -0.1
v 0.3 0.4 -2.98023e-008
v 0.3 0.4 -0.1
v 0.3 0.5 -2.98023e-008
v 0.3 0.5 -0.1
v 0.3 0.6 -2.98023e-008
v 0.3 0.6 -0.1
v 0.3 0.7 0.1
v 0.3 0.7 -2.98023e-008
v 0.3 0.7 -0.1
v 0.3 0.7 -0.3
v 0.3 0.8 0.2
v 0.3 0.8 0.1
v 0.3 0.8 -0.1
v 0.3 0.9 -2.98023e-008
v 0.3 0.9 -0.1
v 0.3 0.9 -0.2
v 0.3 0.9 -0.3
v 0.3 1 0.1
v 0.3 1 -2.98023e-008
v 0.3 1 -0.2
v 0.3 1 -0.3
v 0.3 1.1 0.2
v 0.3 1.1 -2.98023e-008
v 0.3 1.1 -0.1
v 0.3 1.2 -0.1
v 0.3 1.2 -0.2
v 0.3 1.3 -0.2
v 0.3 1.3 -0.3
v 0.3 1.4 -0.2
v 0.3 1.4 -0.3
v -0.2 1 0.3
v -0.2 1.2 0.3
v -0.1 1 0.3
v -0.1 1.2 0.3
v 0.1 1 0.3
v 0.1 1.2 0.3
v 0.2 1 0.3
v 0.2 1.2 0.3
v -0.3 0.8 0.2
v -0.3 1.1 0.2
v -0.2 0.7 0.2
v -0.2 0.8 0.2
v -0.2 1 0.2
v -0.2 1.1 0.2
v -0.1 0.7 0.2
v -0.1 1 0.2
v -0.1 1.1 0.2
v -0.1 1.2 0.2
v 0.1 0.7 0.2
v 0.1 1 0.2
v 0.1 1.1 0.2
v 0.1 1.2 0.2
v 0.2 0.7 0.2
v 0.2 0.8 0.2
v 0.2 1 0.2
v 0.2 1.1 0.2
v 0.3 0.8 0.2
v 0.3 1.1 0.2
v -0.3 0.1 0.1
v -0.3 0.2 0.1
v -0.3 0.4 0.1
v -0.3 0.7 0.1
v -0.3 0.8 0.1
v -0.2 0.1 0.1
v -0.2 0.2 0.1
v -0.2 0.4 0.1
v -0.2 0.7 0.1
v -0.2 0.8 0.1
v -0.1 0.3 0.1
v -0.1 0.4 0.1
v -0.1 0.6 0.1
v -0.1 0.7 0.1
v -0.1 1 0.1
v 0.1 0.3 0.1
v 0.1 0.4 0.1
v 0.1 0.6 0.1
v 0.1 0.7 0.1
v 0.1 1 0.1
v 0.2 0.4 0.1
v 0.2 0.7 0.1
v 0.2 0.8 0.1
v 0.3 0.7 0.1
v 0.3 0.8 0.1
v -0.3 0.4 -2.98023e-008
v -0.3 0.5 -2.98023e-008
v -0.3 0.6 -2.98023e-008
v -0.3 0.7 -2.98023e-008
v -0.2 0 -2.98023e-008
v -0.2 0.1 -2.98023e-008
v -0.2 0.2 -2.98023e-008
v -0.2 0.3 -2.98023e-008
v -0.2 0.4 -2.98023e-008
v -0.2 0.5 -2.98023e-008
v -0.2 0.6 -2.98023e-008
v -0.2 0.7 -2.98023e-008
v -0.1 0 -2.98023e-008
v -0.1 0.1 -2.98023e-008
v -0.1 0.3 -2.98023e-008
v -0.1 0.4 -2.98023e-008
v 0.1 0 -2.98023e-008
v 0.1 0.1 -2.98023e-008
v 0.1 0.3 -2.98023e-008
v 0.1 0.4 -2.98023e-008
v 0.2 0 -2.98023e-008
v 0.2 0.1 -2.98023e-008
v 0.2 0.3 -2.98023e-008
v 0.2 0.4 -2.98023e-008
v 0.2 0.5 -2.98023e-008
v 0.2 0.6 -2.98023e-008
v 0.2 0.7 -2.98023e-008
v 0.3 0.3 -2.98023e-008
v 0.3 0.4 -2.98023e-008
v 0.3 0.5 -2.98023e-008
v 0.3 0.6 -2.98023e-008
v 0.3 0.7 -2.98023e-008
v -0.3 1.1 -0.1
v -0.3 1.2 -0.1
v -0.2 1.1 -0.1
v -0.2 1.2 -0.1
v 0.2 1.1 -0.1
v 0.2 1.2 -0.1
v 0.3 1.1 -0.1
v 0.3 1.2 -0.1
v -0.3 1.2 -0.2
v -0.3 1.3 -0.2
v -0.3 1.4 -0.2
v -0.2 1.2 -0.2
v -0.2 1.3 -0.2
v -0.2 1.4 -0.2
v 0.2 1.2 -0.2
v 0.2 1.3 -0.2
v 0.2 1.4 -0.2
v 0.3 1.2 -0.2
v 0.3 1.3 -0.2
v 0.3 1.4 -0.2
v -0.3 0.1 -2.98023e-008
v -0.3 0.2 -2.98023e-008
v -0.3 0.3 -2.98023e-008
v -0.2 0.1 -2.98023e-008
v -0.2 0.2 -2.98023e-008
v -0.2 0.3 -2.98023e-008
v -0.3 0.3 -0.1
v -0.3 0.4 -0.1
v -0.3 0.5 -0.1
v -0.3 0.6 -0.1
v -0.3 0.7 -0.1
v -0.2 0 -0.1
v -0.2 0.1 -0.1
v -0.2 0.3 -0.1
v -0.2 0.4 -0.1
v -0.2 0.5 -0.1
v -0.2 0.6 -0.1
v -0.2 0.7 -0.1
v -0.2 1.1 -0.1
v -0.2 1.2 -0.1
v -0.1 0 -0.1
v -0.1 0.1 -0.1
v -0.1 0.3 -0.1
v -0.1 0.4 -0.1
v -0.1 1.1 -0.1
v -0.1 1.2 -0.1
v 0.1 0 -0.1
v 0.1 0.1 -0.1
v 0.1 0.3 -0.1
v 0.1 0.4 -0.1
v 0.1 1.1 -0.1
v 0.1 1.2 -0.1
v 0.2 0 -0.1
v 0.2 0.1 -0.1
v 0.2 0.3 -0.1
v 0.2 0.4 -0.1
v 0.2 0.5 -0.1
v 0.2 0.6 -0.1
v 0.2 0.7 -0.1
v 0.2 1.1 -0.1
v 0.2 1.2 -0.1
v 0.3 0.3 -0.1
v 0.3 0.4 -0.1
v 0.3 0.5 -0.1
v 0.3 0.6 -0.1
v 0.3 0.7 -0.1
v -0.3 0.9 -0.2
v -0.3 1 -0.2
v -0.2 0.4 -0.2
v -0.2 0.7 -0.2
v -0.2 0.9 -0.2
v -0.2 1 -0.2
v -0.2 1.1 -0.2
v -0.1 0.3 -0.2
v -0.1 0.4 -0.2
v -0.1 0.7 -0.2
v -0.1 1 -0.2
v -0.1 1.1 -0.2
v -0.1 1.2 -0.2
v 0.1 0.3 -0.2
v 0.1 0.4 -0.2
v 0.1 0.7 -0.2
v 0.1 1 -0.2
v 0.1 1.1 -0.2
v 0.1 1.2 -0.2
v 0.2 0.4 -0.2
v 0.2 0.7 -0.2
v 0.2 0.9 -0.2
v 0.2 1 -0.2
v 0.2 1.1 -0.2
v 0.3 0.9 -0.2
v 0.3 1 -0.2
v -0.3 0.7 -0.3
v -0.3 0.9 -0.3
v -0.3 1 -0.3
v -0.3 1.3 -0.3
v -0.3 1.4 -0.3
v -0.2 0.7 -0.3
v -0.2 0.9 -0.3
v -0.2 1 -0.3
v -0.2 1.3 -0.3
v -0.2 1.4 -0.3
v -0.1 0.4 -0.3
v -0.1 0.7 -0.3
v -0.1 0.8 -0.3
v -0.1 1 -0.3
v -0.1 1.1 -0.3
v 0.1 0.4 -0.3
v 0.1 0.7 -0.3
v 0.1 0.8 -0.3
v 0.1 1 -0.3
v 0.1 1.1 -0.3
v 0.2 0.7 -0.3
v 0.2 0.9 -0.3
v 0.2 1 -0.3
v 0.2 1.3 -0.3
v 0.2 1.4 -0.3
v 0.3 0.7 -0.3
v 0.3 0.9 -0.3
v 0.3 1 -0.3
v 0.3 1.3 -0.3
v 0.3 1.4 -0.3
v -0.2 0 -2.98023e-008
v -0.1 0 -2.98023e-008
v 0.1 0 -2.98023e-008
v 0.2 0 -2.98023e-008
v -0.2 0 -0.1
v -0.1 0 -0.1
v 0.1 0 -0.1
v 0.2 0 -0.1
v -0.3 0.1 0.1
v -0.2 0.1 0.1
v -0.3 0.1 -2.98023e-008
v -0.2 0.1 -2.98023e-008
v -0.1 0.3 0.1
v 0.1 0.3 0.1
v -0.3 0.3 -2.98023e-008
v -0.2 0.3 -2.98023e-008
v -0.1 0.3 -2.98023e-008
v 0.1 0.3 -2.98023e-008
v 0.2 0.3 -2.98023e-008
v 0.3 0.3 -2.98023e-008
v -0.3 0.3 -0.1
v -0.2 0.3 -0.1
v -0.1 0.3 -0.1
v 0.1 0.3 -0.1
v 0.2 0.3 -0.1
v 0.3 0.3 -0.1
v -0.1 0.3 -0.2
v 0.1 0.3 -0.2
v -0.2 0.4 0.1
v -0.1 0.4 0.1
v 0.1 0.4 0.1
v 0.2 0.4 0.1
v -0.2 0.4 -2.98023e-008
v -0.1 0.4 -2.98023e-008
v 0.1 0.4 -2.98023e-008
v 0.2 0.4 -2.98023e-008
v -0.2 0.4 -0.1
v -0.1 0.4 -0.1
v 0.1 0.4 -0.1
v 0.2 0.4 -0.1
v -0.2 0.4 -0.2
v -0.1 0.4 -0.2
v 0.1 0.4 -0.2
v 0.2 0.4 -0.2
v -0.1 0.4 -0.3
v 0.1 0.4 -0.3
v -0.2 0.7 0.2
v -0.1 0.7 0.2
v 0.1 0.7 0.2
v 0.2 0.7 0.2
v -0.3 0.7 0.1
v -0.2 0.7 0.1
v -0.1 0.7 0.1
v 0.1 0.7 0.1
v 0.2 0.7 0.1
v 0.3 0.7 0.1
v -0.3 0.7 -2.98023e-008
v -0.2 0.7 -2.98023e-008
v 0.2 0.7 -2.98023e-008
v 0.3 0.7 -2.98023e-008
v -0.3 0.7 -0.1
v -0.2 0.7 -0.1
v 0.2 0.7 -0.1
v 0.3 0.7 -0.1
v -0.2 0.7 -0.2
v -0.1 0.7 -0.2
v 0.1 0.7 -0.2
v 0.2 0.7 -0.2
v -0.3 0.7 -0.3
v -0.2 0.7 -0.3
v -0.1 0.7 -0.3
v 0.1 0.7 -0.3
v 0.2 0.7 -0.3
v 0.3 0.7 -0.3
v -0.3 0.8 0.2
v -0.2 0.8 0.2
v 0.2 0.8 0.2
v 0.3 0.8 0.2
v -0.3 0.8 0.1
v -0.2 0.8 0.1
v 0.2 0.8 0.1
v 0.3 0.8 0.1
v -0.2 1 0.3
v -0.1 1 0.3
v 0.1 1 0.3
v 0.2 1 0.3
v -0.2 1 0.2
v -0.1 1 0.2
v 0.1 1 0.2
v 0.2 1 0.2
v -0.1 1 0.1
v 0.1 1 0.1
v -0.3 1 -0.2
v -0.2 1 -0.2
v 0.2 1 -0.2
v 0.3 1 -0.2
v -0.3 1 -0.3
v -0.2 1 -0.3
v 0.2 1 -0.3
v 0.3 1 -0.3
v -0.3 0.4 0.1
v -0.2 0.4 0.1
v -0.3 0.4 -2.98023e-008
v -0.2 0.4 -2.98023e-008
v -0.3 0.9 -0.2
v -0.2 0.9 -0.2
v 0.2 0.9 -0.2
v 0.3 0.9 -0.2
v -0.3 0.9 -0.3
v -0.2 0.9 -0.3
v 0.2 0.9 -0.3
v 0.3 0.9 -0.3
v -0.2 1 -0.2
v -0.1 1 -0.2
v 0.1 1 -0.2
v 0.2 1 -0.2
v -0.2 1 -0.3
v -0.1 1 -0.3
v 0.1 1 -0.3
v 0.2 1 -0.3
v -0.3 1.1 0.2
v -0.2 1.1 0.2
v 0.2 1.1 0.2
v 0.3 1.1 0.2
v -0.3 1.1 -2.98023e-008
v -0.2 1.1 -2.98023e-008
v 0.2 1.1 -2.98023e-008
v 0.3 1.1 -2.98023e-008
v -0.3 1.1 -0.1
v -0.2 1.1 -0.1
v -0.1 1.1 -0.1
v 0.1 1.1 -0.1
v 0.2 1.1 -0.1
v 0.3 1.1 -0.1
v -0.2 1.1 -0.2
v -0.1 1.1 -0.2
v 0.1 1.1 -0.2
v 0.2 1.1 -0.2
v -0.1 1.1 -0.3
v 0.1 1.1 -0.3
v -0.2 1.2 0.3
v -0.1 1.2 0.3
v 0.1 1.2 0.3
v 0.2 1.2 0.3
v -0.1 1.2 0.2
v 0.1 1.2 0.2
v -0.3 1.2 -0.1
v -0.2 1.2 -0.1
v -0.1 1.2 -0.1
v 0.1 1.2 -0.1
v 0.2 1.2 -0.1
v 0.3 1.2 -0.1
v -0.3 1.2 -0.2
v -0.2 1.2 -0.2
v -0.1 1.2 -0.2
v 0.1 1.2 -0.2
v 0.2 1.2 -0.2
v 0.3 1.2 -0.2
v -0.3 1.4 -0.2
v -0.2 1.4 -0.2
v 0.2 1.4 -0.2
v 0.3 1.4 -0.2
v -0.3 1.4 -0.3
v -0.2 1.4 -0.3
v 0.2 1.4 -0.3
v 0.3 1.4 -0.3

# faces
f 3/2/1 2/2/1 1/2/1
f 4/2/1 2/2/1 3/2/1
f 5/3/1 4/3/1 3/3/1
f 7/3/1 5/3/1 3/3/1
f 8/8/1 6/8/1 5/8/1
f 8/3/1 5/3/1 7/3/1
f 9/8/1 6/8/1 8/8/1
f 10/6/1 9/6/1 8/6/1
f 11/6/1 9/6/1 10/6/1
f 12/13/1 11/13/1 10/13/1
f 13/13/1 11/13/1 12/13/1
f 15/7/1 13/7/1 12/7/1
f 16/7/1 13/7/1 15/7/1
f 19/8/1 16/8/1 15/8/1
f 19/8/1 17/8/1 16/8/1
f 19/8/1 15/8/1 14/8/1
f 20/8/1 17/8/1 19/8/1
f 21/1/1 20/1/1 19/1/1
f 22/8/1 17/8/1 20/8/1
f 22/1/1 20/1/1 21/1/1
f 23/8/1 17/8/1 22/8/1
f 24/8/1 17/8/1 23/8/1
f 25/8/1 19/8/1 18/8/1
f 25/1/1 21/1/1 19/1/1
f 26/7/1 23/7/1 22/7/1
f 26/1/1 21/1/1 25/1/1
f 26/7/1 22/7/1 21/7/1
f 27/7/1 23/7/1 26/7/1
f 29/8/1 25/8/1 18/8/1
f 29/8/1 26/8/1 25/8/1
f 30/7/1 28/7/1 27/7/1
f 30/8/1 26/8/1 29/8/1
f 30/7/1 27/7/1 26/7/1
f 31/7/1 28/7/1 30/7/1
f 32/7/1 28/7/1 31/7/1
f 33/7/1 28/7/1 32/7/1
f 34/7/1 28/7/1 33/7/1
f 35/7/1 28/7/1 34/7/1
f 36/12/1 35/12/1 34/12/1
f 37/12/1 35/12/1 36/12/1
f 40/7/1 39/7/1 38/7/1
f 41/7/1 39/7/1 40/7/1
f 42/6/1 41/6/1 40/6/1
f 43/6/1 41/6/1 42/6/1
f 44/6/1 41/6/1 43/6/1
f 49/9/1 46/9/1 45/9/1
f 50/9/1 48/9/1 47/9/1
f 51/9/1 49/9/1 45/9/1
f 52/9/1 48/9/1 50/9/1
f 54/9/1 51/9/1 45/9/1
f 55/9/1 51/9/1 54/9/1
f 56/9/1 48/9/1 52/9/1
f 57/9/1 48/9/1 56/9/1
f 58/6/1 54/6/1 53/6/1
f 59/6/1 54/6/1 58/6/1
f 64/6/1 61/6/1 60/6/1
f 65/6/1 61/6/1 64/6/1
f 66/6/1 63/6/1 62/6/1
f 69/6/1 66/6/1 62/6/1
f 69/6/1 68/6/1 67/6/1
f 69/6/1 67/6/1 66/6/1
f 70/6/1 68/6/1 69/6/1
f 75/9/1 72/9/1 71/9/1
f 76/9/1 72/9/1 75/9/1
f 77/9/1 74/9/1 73/9/1
f 78/9/1 74/9/1 77/9/1
f 80/8/1 79/8/1 78/8/1
f 81/8/1 79/8/1 80/8/1
f 85/8/1 83/8/1 82/8/1
f 86/8/1 83/8/1 85/8/1
f 87/8/1 85/8/1 84/8/1
f 88/8/1 85/8/1 87/8/1
f 91/7/1 90/7/1 89/7/1
f 92/7/1 90/7/1 91/7/1
f 93/6/1 92/6/1 91/6/1
f 94/6/1 92/6/1 93/6/1
f 98/6/1 96/6/1 95/6/1
f 99/6/1 96/6/1 98/6/1
f 100/6/1 98/6/1 97/6/1
f 101/6/1 100/6/1 97/6/1
f 102/6/1 100/6/1 101/6/1
f 106/7/1 104/7/1 103/7/1
f 107/7/1 106/7/1 105/7/1
f 108/7/1 104/7/1 106/7/1
f 108/7/1 106/7/1 107/7/1
f 109/7/1 104/7/1 108/7/1
f 110/7/1 104/7/1 109/7/1
f 111/12/1 110/12/1 109/12/1
f 112/12/1 110/12/1 111/12/1
f 113/2/2 114/2/2 115/2/2
f 115/2/2 114/2/2 116/2/2
f 115/3/2 116/3/2 117/3/2
f 115/3/2 117/3/2 118/3/2
f 118/3/2 117/3/2 119/3/2
f 120/7/2 121/7/2 123/7/2
f 122/7/2 123/7/2 124/7/2
f 123/7/2 121/7/2 125/7/2
f 124/7/2 123/7/2 125/7/2
f 125/7/2 121/7/2 126/7/2
f 126/7/2 121/7/2 127/7/2
f 126/12/2 127/12/2 128/12/2
f 128/12/2 127/12/2 129/12/2
f 130/7/2 131/7/2 132/7/2
f 132/7/2 131/7/2 133/7/2
f 132/6/2 133/6/2 134/6/2
f 134/6/2 133/6/2 135/6/2
f 136/6/2 137/6/2 139/6/2
f 139/6/2 137/6/2 140/6/2
f 138/6/2 139/6/2 141/6/2
f 138/6/2 141/6/2 142/6/2
f 142/6/2 141/6/2 143/6/2
f 144/9/2 145/9/2 148/9/2
f 148/9/2 145/9/2 149/9/2
f 146/9/2 147/9/2 150/9/2
f 150/9/2 147/9/2 151/9/2
f 151/8/2 152/8/2 153/8/2
f 153/8/2 152/8/2 154/8/2
f 155/8/2 156/8/2 158/8/2
f 158/8/2 156/8/2 159/8/2
f 157/8/2 158/8/2 160/8/2
f 160/8/2 158/8/2 161/8/2
f 162/7/2 163/7/2 164/7/2
f 164/7/2 163/7/2 165/7/2
f 164/6/2 165/6/2 166/6/2
f 166/6/2 165/6/2 167/6/2
f 168/9/2 169/9/2 172/9/2
f 170/9/2 171/9/2 173/9/2
f 168/9/2 172/9/2 174/9/2
f 173/9/2 171/9/2 175/9/2
f 168/9/2 174/9/2 177/9/2
f 177/9/2 174/9/2 178/9/2
f 175/9/2 171/9/2 179/9/2
f 179/9/2 171/9/2 180/9/2
f 176/6/2 177/6/2 181/6/2
f 181/6/2 177/6/2 182/6/2
f 183/6/2 184/6/2 187/6/2
f 187/6/2 184/6/2 188/6/2
f 185/6/2 186/6/2 189/6/2
f 185/6/2 189/6/2 192/6/2
f 190/6/2 191/6/2 192/6/2
f 189/6/2 190/6/2 192/6/2
f 192/6/2 191/6/2 193/6/2
f 194/8/2 195/8/2 196/8/2
f 196/8/2 195/8/2 197/8/2
f 196/6/2 197/6/2 198/6/2
f 198/6/2 197/6/2 199/6/2
f 198/13/2 199/13/2 200/13/2
f 200/13/2 199/13/2 201/13/2
f 200/7/2 201/7/2 203/7/2
f 203/7/2 201/7/2 204/7/2
f 203/8/2 204/8/2 207/8/2
f 204/8/2 205/8/2 207/8/2
f 202/8/2 203/8/2 207/8/2
f 207/8/2 205/8/2 208/8/2
f 207/1/2 208/1/2 209/1/2
f 208/8/2 205/8/2 210/8/2
f 209/1/2 208/1/2 210/1/2
f 210/8/2 205/8/2 211/8/2
f 211/8/2 205/8/2 212/8/2
f 206/8/2 207/8/2 213/8/2
f 207/1/2 209/1/2 213/1/2
f 210/7/2 211/7/2 214/7/2
f 213/1/2 209/1/2 214/1/2
f 209/7/2 210/7/2 214/7/2
f 214/7/2 211/7/2 215/7/2
f 206/8/2 213/8/2 217/8/2
f 213/8/2 214/8/2 217/8/2
f 215/7/2 216/7/2 218/7/2
f 217/8/2 214/8/2 218/8/2
f 214/7/2 215/7/2 218/7/2
f 218/7/2 216/7/2 219/7/2
f 219/7/2 216/7/2 220/7/2
f 220/7/2 216/7/2 221/7/2
f 221/7/2 216/7/2 222/7/2
f 222/7/2 216/7/2 223/7/2
f 222/12/2 223/12/2 224/12/2
f 224/12/2 223/12/2 225/12/2
f 228/6/3 227/6/3 226/6/3
f 229/6/3 227/6/3 228/6/3
f 232/6/3 231/6/3 230/6/3
f 233/6/3 231/6/3 232/6/3
f 237/8/3 235/8/3 234/8/3
f 238/8/3 235/8/3 237/8/3
f 239/8/3 235/8/3 238/8/3
f 240/6/3 237/6/3 236/6/3
f 240/6/3 238/6/3 237/6/3
f 241/6/3 238/6/3 240/6/3
f 245/6/3 242/6/3 241/6/3
f 246/8/3 243/8/3 242/8/3
f 246/6/3 242/6/3 245/6/3
f 247/8/3 243/8/3 246/8/3
f 248/6/3 245/6/3 244/6/3
f 249/6/3 245/6/3 248/6/3
f 250/6/3 245/6/3 249/6/3
f 252/8/3 251/8/3 250/8/3
f 252/8/3 250/8/3 249/8/3
f 253/8/3 251/8/3 252/8/3
f 259/2/3 255/2/3 254/2/3
f 260/3/3 256/3/3 255/3/3
f 260/2/3 255/2/3 259/2/3
f 261/3/3 256/3/3 260/3/3
f 262/8/3 258/8/3 257/8/3
f 263/8/3 258/8/3 262/8/3
f 265/9/3 262/9/3 261/9/3
f 266/9/3 262/9/3 265/9/3
f 267/9/3 262/9/3 266/9/3
f 269/9/3 265/9/3 264/9/3
f 269/9/3 266/9/3 265/9/3
f 270/9/3 266/9/3 269/9/3
f 271/13/3 267/13/3 266/13/3
f 271/9/3 266/9/3 270/9/3
f 272/1/3 268/1/3 267/1/3
f 272/13/3 267/13/3 271/13/3
f 273/1/3 268/1/3 272/1/3
f 274/9/3 271/9/3 270/9/3
f 274/9/3 272/9/3 271/9/3
f 275/9/3 272/9/3 274/9/3
f 277/8/3 276/8/3 275/8/3
f 278/8/3 276/8/3 277/8/3
f 287/6/3 280/6/3 279/6/3
f 288/13/3 281/13/3 280/13/3
f 288/6/3 280/6/3 287/6/3
f 289/7/3 282/7/3 281/7/3
f 289/13/3 281/13/3 288/13/3
f 290/7/3 282/7/3 289/7/3
f 291/7/3 284/7/3 283/7/3
f 292/6/3 286/6/3 285/6/3
f 292/7/3 284/7/3 291/7/3
f 292/6/3 285/6/3 284/6/3
f 293/13/3 287/13/3 286/13/3
f 293/6/3 286/6/3 292/6/3
f 294/13/3 287/13/3 293/13/3
f 299/7/3 296/7/3 295/7/3
f 300/6/3 297/6/3 296/6/3
f 300/7/3 296/7/3 299/7/3
f 301/13/3 298/13/3 297/13/3
f 301/6/3 297/6/3 300/6/3
f 302/13/3 298/13/3 301/13/3
f 306/8/3 302/8/3 301/8/3
f 307/6/3 303/6/3 302/6/3
f 307/8/3 302/8/3 306/8/3
f 308/13/3 304/13/3 303/13/3
f 308/6/3 303/6/3 307/6/3
f 309/7/3 305/7/3 304/7/3
f 309/13/3 304/13/3 308/13/3
f 310/7/3 305/7/3 309/7/3
f 313/7/3 312/7/3 311/7/3
f 314/7/3 312/7/3 313/7/3
f 317/7/3 316/7/3 315/7/3
f 318/7/3 316/7/3 317/7/3
f 322/7/3 320/7/3 319/7/3
f 323/12/3 321/12/3 320/12/3
f 323/7/3 320/7/3 322/7/3
f 324/12/3 321/12/3 323/12/3
f 328/7/3 326/7/3 325/7/3
f 329/12/3 327/12/3 326/12/3
f 329/7/3 326/7/3 328/7/3
f 330/12/3 327/12/3 329/12/3
f 331/2/4 332/2/4 334/2/4
f 332/3/4 333/3/4 335/3/4
f 334/2/4 332/2/4 335/2/4
f 335/3/4 333/3/4 336/3/4
f 337/8/4 338/8/4 344/8/4
f 338/6/4 339/6/4 345/6/4
f 344/8/4 338/8/4 345/8/4
f 339/13/4 340/13/4 346/13/4
f 345/6/4 339/6/4 346/6/4
f 340/7/4 341/7/4 347/7/4
f 346/13/4 340/13/4 347/13/4
f 347/7/4 341/7/4 348/7/4
f 342/7/4 343/7/4 351/7/4
f 343/6/4 344/6/4 352/6/4
f 351/7/4 343/7/4 352/7/4
f 344/13/4 345/13/4 353/13/4
f 352/6/4 344/6/4 353/6/4
f 353/13/4 345/13/4 354/13/4
f 349/6/4 350/6/4 355/6/4
f 355/6/4 350/6/4 356/6/4
f 357/7/4 358/7/4 363/7/4
f 358/6/4 359/6/4 364/6/4
f 363/7/4 358/7/4 364/7/4
f 359/13/4 360/13/4 365/13/4
f 364/6/4 359/6/4 365/6/4
f 365/13/4 360/13/4 366/13/4
f 361/6/4 362/6/4 370/6/4
f 370/6/4 362/6/4 371/6/4
f 365/8/4 366/8/4 372/8/4
f 366/6/4 367/6/4 373/6/4
f 372/8/4 366/8/4 373/8/4
f 367/13/4 368/13/4 374/13/4
f 373/6/4 367/6/4 374/6/4
f 368/7/4 369/7/4 375/7/4
f 374/13/4 368/13/4 375/13/4
f 375/7/4 369/7/4 376/7/4
f 377/7/4 378/7/4 381/7/4
f 381/7/4 378/7/4 382/7/4
f 379/9/4 380/9/4 385/9/4
f 385/9/4 380/9/4 386/9/4
f 382/6/4 383/6/4 387/6/4
f 387/6/4 383/6/4 388/6/4
f 384/9/4 385/9/4 390/9/4
f 390/9/4 385/9/4 391/9/4
f 388/8/4 389/8/4 394/8/4
f 394/8/4 389/8/4 395/8/4
f 391/9/4 392/9/4 396/9/4
f 396/9/4 392/9/4 397/9/4
f 393/6/4 394/6/4 399/6/4
f 399/6/4 394/6/4 400/6/4
f 398/7/4 399/7/4 401/7/4
f 401/7/4 399/7/4 402/7/4
f 403/8/4 404/8/4 408/8/4
f 408/8/4 404/8/4 409/8/4
f 405/7/4 406/7/4 410/7/4
f 406/12/4 407/12/4 411/12/4
f 410/7/4 406/7/4 411/7/4
f 411/12/4 407/12/4 412/12/4
f 409/6/4 410/6/4 414/6/4
f 408/6/4 409/6/4 414/6/4
f 414/6/4 410/6/4 415/6/4
f 415/6/4 410/6/4 416/6/4
f 413/8/4 414/8/4 418/8/4
f 414/6/4 415/6/4 419/6/4
f 418/8/4 414/8/4 419/8/4
f 416/8/4 417/8/4 420/8/4
f 419/6/4 415/6/4 420/6/4
f 415/8/4 416/8/4 420/8/4
f 420/8/4 417/8/4 421/8/4
f 421/8/4 417/8/4 422/8/4
f 419/6/4 420/6/4 423/6/4
f 420/6/4 421/6/4 423/6/4
f 423/6/4 421/6/4 424/6/4
f 424/6/4 421/6/4 425/6/4
f 423/8/4 424/8/4 428/8/4
f 428/8/4 424/8/4 429/8/4
f 425/7/4 426/7/4 430/7/4
f 426/12/4 427/12/4 431/12/4
f 430/7/4 426/7/4 431/7/4
f 431/12/4 427/12/4 432/12/4
f 437/7/5 434/7/5 433/7/5
f 438/7/5 434/7/5 437/7/5
f 439/7/5 436/7/5 435/7/5
f 440/7/5 436/7/5 439/7/5
f 443/2/5 442/2/5 441/2/5
f 444/2/5 442/2/5 443/2/5
f 449/9/5 446/9/5 445/9/5
f 450/9/5 446/9/5 449/9/5
f 453/8/5 448/8/5 447/8/5
f 454/8/5 448/8/5 453/8/5
f 455/13/5 450/13/5 449/13/5
f 456/13/5 450/13/5 455/13/5
f 457/8/5 452/8/5 451/8/5
f 458/8/5 452/8/5 457/8/5
f 459/9/5 456/9/5 455/9/5
f 460/9/5 456/9/5 459/9/5
f 465/9/5 462/9/5 461/9/5
f 466/9/5 462/9/5 465/9/5
f 467/9/5 464/9/5 463/9/5
f 468/9/5 464/9/5 467/9/5
f 473/9/5 470/9/5 469/9/5
f 474/9/5 470/9/5 473/9/5
f 475/9/5 472/9/5 471/9/5
f 476/9/5 472/9/5 475/9/5
f 477/8/5 475/8/5 474/8/5
f 478/8/5 475/8/5 477/8/5
f 484/6/5 480/6/5 479/6/5
f 485/6/5 480/6/5 484/6/5
f 486/6/5 482/6/5 481/6/5
f 487/6/5 482/6/5 486/6/5
f 489/8/5 484/8/5 483/8/5
f 490/8/5 484/8/5 489/8/5
f 491/8/5 488/8/5 487/8/5
f 492/8/5 488/8/5 491/8/5
f 497/8/5 494/8/5 493/8/5
f 500/8/5 496/8/5 495/8/5
f 501/8/5 497/8/5 493/8/5
f 502/6/5 498/6/5 497/6/5
f 502/8/5 497/8/5 501/8/5
f 503/6/5 498/6/5 502/6/5
f 504/6/5 500/6/5 499/6/5
f 505/8/5 496/8/5 500/8/5
f 505/6/5 500/6/5 504/6/5
f 506/8/5 496/8/5 505/8/5
f 511/8/5 508/8/5 507/8/5
f 512/8/5 508/8/5 511/8/5
f 513/8/5 510/8/5 509/8/5
f 514/8/5 510/8/5 513/8/5
f 519/6/5 516/6/5 515/6/5
f 520/6/5 516/6/5 519/6/5
f 521/6/5 518/6/5 517/6/5
f 522/6/5 518/6/5 521/6/5
f 523/6/5 521/6/5 520/6/5
f 524/6/5 521/6/5 523/6/5
f 529/7/5 526/7/5 525/7/5
f 530/7/5 526/7/5 529/7/5
f 531/7/5 528/7/5 527/7/5
f 532/7/5 528/7/5 531/7/5
f 533/3/6 534/3/6 535/3/6
f 535/3/6 534/3/6 536/3/6
f 537/8/6 538/8/6 541/8/6
f 541/8/6 538/8/6 542/8/6
f 539/8/6 540/8/6 543/8/6
f 543/8/6 540/8/6 544/8/6
f 545/6/6 546/6/6 549/6/6
f 549/6/6 546/6/6 550/6/6
f 547/6/6 548/6/6 551/6/6
f 551/6/6 548/6/6 552/6/6
f 553/8/6 554/8/6 557/8/6
f 557/8/6 554/8/6 558/8/6
f 555/8/6 556/8/6 559/8/6
f 559/8/6 556/8/6 560/8/6
f 557/7/6 558/7/6 561/7/6
f 561/7/6 558/7/6 562/7/6
f 559/7/6 560/7/6 565/7/6
f 565/7/6 560/7/6 566/7/6
f 562/6/6 563/6/6 567/6/6
f 567/6/6 563/6/6 568/6/6
f 564/6/6 565/6/6 569/6/6
f 569/6/6 565/6/6 570/6/6
f 568/8/6 569/8/6 571/8/6
f 571/8/6 569/8/6 572/8/6
f 573/6/6 574/6/6 577/6/6
f 575/6/6 576/6/6 578/6/6
f 573/6/6 577/6/6 580/6/6
f 577/8/6 578/8/6 581/8/6
f 580/6/6 577/6/6 581/6/6
f 578/6/6 576/6/6 582/6/6
f 581/8/6 578/8/6 582/8/6
f 582/6/6 576/6/6 583/6/6
f 579/7/6 580/7/6 585/7/6
f 585/7/6 580/7/6 586/7/6
f 581/8/6 582/8/6 587/8/6
f 587/8/6 582/8/6 588/8/6
f 583/7/6 584/7/6 589/7/6
f 589/7/6 584/7/6 590/7/6
f 591/12/6 592/12/6 595/12/6
f 595/12/6 592/12/6 596/12/6
f 593/12/6 594/12/6 597/12/6
f 597/12/6 594/12/6 598/12/6
