# MagicaVoxel @ Ephtracy

# group
o 

# material
mtllib chr_BlueHunter.mtl
usemtl palette

# normals
vn -1 0 0
vn 1 0 0
vn 0 0 1
vn 0 0 -1
vn 0 -1 0
vn 0 1 0

# texcoords
vt 0.0566406 0.5
vt 0.162109 0.5
vt 0.166016 0.5
vt 0.294922 0.5
vt 0.306641 0.5
vt 0.310547 0.5
vt 0.376953 0.5
vt 0.380859 0.5
vt 0.384766 0.5
vt 0.400391 0.5
vt 0.404297 0.5
vt 0.978516 0.5
vt 0.982422 0.5
vt 0.990234 0.5
vt 0.994141 0.5

# verts
v -0.3 0.2 0.1
v -0.3 0.2 -0.2
v -0.3 0.3 0.2
v -0.3 0.3 0.1
v -0.3 0.3 -2.98023e-008
v -0.3 0.3 -0.1
v -0.3 0.3 -0.2
v -0.3 0.3 -0.3
v -0.3 0.4 0.3
v -0.3 0.4 0.2
v -0.3 0.4 0.1
v -0.3 0.4 -2.98023e-008
v -0.3 0.4 -0.1
v -0.3 0.4 -0.2
v -0.3 0.4 -0.3
v -0.3 0.4 -0.4
v -0.3 0.5 0.3
v -0.3 0.5 0.2
v -0.3 0.5 -2.98023e-008
v -0.3 0.5 -0.1
v -0.3 0.5 -0.3
v -0.3 0.5 -0.4
v -0.3 0.6 0.2
v -0.3 0.6 -2.98023e-008
v -0.3 0.6 -0.1
v -0.3 0.7 0.2
v -0.3 0.7 0.1
v -0.3 0.7 -2.98023e-008
v -0.3 0.7 -0.1
v -0.3 0.7 -0.2
v -0.3 0.8 0.1
v -0.3 0.8 -2.98023e-008
v -0.3 0.8 -0.2
v -0.3 0.8 -0.3
v -0.3 0.9 0.1
v -0.3 0.9 -2.98023e-008
v -0.3 1 -0.2
v -0.3 1 -0.3
v -0.3 1.1 0.1
v -0.3 1.1 -0.2
v -0.2 0 -2.98023e-008
v -0.2 0 -0.1
v -0.2 0.1 -2.98023e-008
v -0.2 0.1 -0.1
v -0.2 0.2 -2.98023e-008
v -0.2 0.2 -0.1
v -0.2 0.3 0.1
v -0.2 0.3 -2.98023e-008
v -0.2 0.3 -0.1
v -0.2 0.3 -0.2
v -0.2 0.4 0.1
v -0.2 0.4 -2.98023e-008
v -0.2 0.4 -0.1
v -0.2 0.4 -0.2
v -0.2 0.5 0.1
v -0.2 0.5 -2.98023e-008
v -0.2 0.5 -0.1
v -0.2 0.5 -0.2
v -0.2 0.6 0.1
v -0.2 0.6 -2.98023e-008
v -0.2 0.6 -0.1
v -0.2 0.6 -0.2
v -0.2 0.6 -0.3
v -0.2 0.7 -0.1
v -0.2 0.7 -0.2
v -0.2 0.8 0.1
v -0.2 0.8 -2.98023e-008
v -0.2 0.8 -0.2
v -0.2 0.8 -0.3
v -0.2 0.8 -0.4
v -0.2 0.9 0.2
v -0.2 0.9 0.1
v -0.2 0.9 -2.98023e-008
v -0.2 1 -0.2
v -0.2 1 -0.3
v -0.2 1.1 0.2
v -0.2 1.1 0.1
v -0.2 1.1 -2.98023e-008
v -0.2 1.1 -0.2
v -0.2 1.1 -0.4
v -0.2 1.2 -2.98023e-008
v -0.2 1.2 -0.2
v -0.1 0.2 -0.2
v -0.1 0.2 -0.3
v -0.1 0.3 -0.2
v -0.1 0.4 -0.2
v -0.1 0.6 -0.2
v -0.1 0.6 -0.3
v -0.1 1.1 0.1
v -0.1 1.1 -2.98023e-008
v -0.1 1.1 -0.2
v -0.1 1.1 -0.3
v -0.1 1.2 0.1
v -0.1 1.2 -2.98023e-008
v -0.1 1.2 -0.2
v -0.1 1.2 -0.3
v 0.1 0 -2.98023e-008
v 0.1 0 -0.1
v 0.1 0.1 -2.98023e-008
v 0.1 0.1 -0.1
v 0.1 0.2 -2.98023e-008
v 0.1 0.2 -0.1
v 0.1 0.3 -2.98023e-008
v 0.1 0.3 -0.1
v 0.1 0.6 0.2
v 0.1 0.6 0.1
v 0.1 0.7 0.2
v 0.1 0.7 0.1
v 0.3 1.2 -2.98023e-008
v 0.3 1.2 -0.2
v 0.3 1.3 -2.98023e-008
v 0.3 1.3 -0.2
v -0.2 0.2 0.1
v -0.2 0.2 -2.98023e-008
v -0.2 0.2 -0.1
v -0.2 0.2 -0.2
v -0.2 0.3 0.2
v -0.2 0.3 0.1
v -0.2 0.3 -2.98023e-008
v -0.2 0.3 -0.1
v -0.2 0.3 -0.2
v -0.2 0.3 -0.3
v -0.2 0.4 0.3
v -0.2 0.4 0.2
v -0.2 0.4 0.1
v -0.2 0.4 -0.2
v -0.2 0.4 -0.3
v -0.2 0.4 -0.4
v -0.2 0.5 0.3
v -0.2 0.5 0.2
v -0.2 0.5 0.1
v -0.2 0.5 -0.2
v -0.2 0.5 -0.3
v -0.2 0.5 -0.4
v -0.1 0 -2.98023e-008
v -0.1 0 -0.1
v -0.1 0.1 -2.98023e-008
v -0.1 0.1 -0.1
v -0.1 0.2 -2.98023e-008
v -0.1 0.2 -0.1
v -0.1 0.3 -2.98023e-008
v -0.1 0.3 -0.1
v -0.1 0.6 0.2
v -0.1 0.6 0.1
v -0.1 0.7 0.2
v -0.1 0.7 0.1
v 0.1 0.2 -0.2
v 0.1 0.2 -0.3
v 0.1 0.3 -0.2
v 0.1 0.4 -0.2
v 0.1 0.6 -0.2
v 0.1 0.6 -0.3
v 0.1 1.1 0.1
v 0.1 1.1 -2.98023e-008
v 0.1 1.1 -0.2
v 0.1 1.1 -0.3
v 0.1 1.2 0.1
v 0.1 1.2 -2.98023e-008
v 0.1 1.2 -0.2
v 0.1 1.2 -0.3
v 0.2 0 -2.98023e-008
v 0.2 0 -0.1
v 0.2 0.1 -2.98023e-008
v 0.2 0.1 -0.1
v 0.2 0.2 -2.98023e-008
v 0.2 0.2 -0.1
v 0.2 0.3 0.1
v 0.2 0.3 -2.98023e-008
v 0.2 0.3 -0.1
v 0.2 0.3 -0.2
v 0.2 0.4 0.1
v 0.2 0.4 -2.98023e-008
v 0.2 0.4 -0.1
v 0.2 0.4 -0.2
v 0.2 0.5 0.1
v 0.2 0.5 -2.98023e-008
v 0.2 0.5 -0.1
v 0.2 0.6 0.1
v 0.2 0.6 -2.98023e-008
v 0.2 0.6 -0.1
v 0.2 0.6 -0.2
v 0.2 0.6 -0.3
v 0.2 0.7 -0.1
v 0.2 0.7 -0.2
v 0.2 0.8 0.1
v 0.2 0.8 -2.98023e-008
v 0.2 0.8 -0.2
v 0.2 0.8 -0.3
v 0.2 0.8 -0.4
v 0.2 0.9 0.2
v 0.2 0.9 0.1
v 0.2 0.9 -2.98023e-008
v 0.2 0.9 -0.2
v 0.2 0.9 -0.3
v 0.2 0.9 -0.4
v 0.2 1.1 0.2
v 0.2 1.1 0.1
v 0.2 1.1 -0.3
v 0.2 1.1 -0.4
v 0.3 0.3 -2.98023e-008
v 0.3 0.3 -0.1
v 0.3 0.5 -2.98023e-008
v 0.3 0.5 -0.1
v 0.3 0.6 0.2
v 0.3 0.6 -2.98023e-008
v 0.3 0.6 -0.1
v 0.3 0.7 0.2
v 0.3 0.7 0.1
v 0.3 0.7 -2.98023e-008
v 0.3 0.7 -0.1
v 0.3 0.7 -0.2
v 0.3 0.8 0.1
v 0.3 0.8 -2.98023e-008
v 0.3 0.8 -0.2
v 0.3 0.9 0.1
v 0.3 0.9 -2.98023e-008
v 0.3 0.9 -0.2
v 0.3 0.9 -0.3
v 0.3 1.1 0.1
v 0.3 1.1 -2.98023e-008
v 0.3 1.1 -0.2
v 0.3 1.1 -0.3
v 0.3 1.2 -2.98023e-008
v 0.3 1.2 -0.2
v 0.4 1.2 -2.98023e-008
v 0.4 1.2 -0.2
v 0.4 1.3 -2.98023e-008
v 0.4 1.3 -0.2
v -0.3 0.4 0.3
v -0.3 0.5 0.3
v -0.2 0.4 0.3
v -0.2 0.5 0.3
v -0.3 0.3 0.2
v -0.3 0.4 0.2
v -0.3 0.6 0.2
v -0.3 0.7 0.2
v -0.2 0.3 0.2
v -0.2 0.4 0.2
v -0.2 0.9 0.2
v -0.2 1.1 0.2
v -0.1 0.6 0.2
v -0.1 0.7 0.2
v 2.98023e-008 1 0.2
v 2.98023e-008 1.1 0.2
v 0.1 0.6 0.2
v 0.1 0.7 0.2
v 0.1 0.9 0.2
v 0.1 1 0.2
v 0.2 0.9 0.2
v 0.2 1.1 0.2
v 0.3 0.6 0.2
v 0.3 0.7 0.2
v -0.3 0.2 0.1
v -0.3 0.3 0.1
v -0.3 0.7 0.1
v -0.3 0.8 0.1
v -0.3 0.9 0.1
v -0.3 1.1 0.1
v -0.2 0.2 0.1
v -0.2 0.3 0.1
v -0.2 0.4 0.1
v -0.2 0.5 0.1
v -0.2 0.6 0.1
v -0.2 0.7 0.1
v -0.2 0.8 0.1
v -0.2 0.9 0.1
v -0.2 1.1 0.1
v -0.1 0.3 0.1
v -0.1 0.4 0.1
v -0.1 0.5 0.1
v -0.1 0.6 0.1
v -0.1 0.7 0.1
v -0.1 0.8 0.1
v -0.1 0.9 0.1
v -0.1 1.1 0.1
v -0.1 1.2 0.1
v 2.98023e-008 1.1 0.1
v 0.1 0.3 0.1
v 0.1 0.4 0.1
v 0.1 0.5 0.1
v 0.1 0.6 0.1
v 0.1 0.7 0.1
v 0.1 0.8 0.1
v 0.1 0.9 0.1
v 0.1 1.1 0.1
v 0.1 1.2 0.1
v 0.2 0.3 0.1
v 0.2 0.4 0.1
v 0.2 0.5 0.1
v 0.2 0.6 0.1
v 0.2 0.7 0.1
v 0.2 0.8 0.1
v 0.2 0.9 0.1
v 0.2 1.1 0.1
v 0.3 0.7 0.1
v 0.3 0.8 0.1
v 0.3 0.9 0.1
v 0.3 1.1 0.1
v -0.3 0.3 -2.98023e-008
v -0.3 0.4 -2.98023e-008
v -0.3 0.5 -2.98023e-008
v -0.3 0.6 -2.98023e-008
v -0.3 0.8 -2.98023e-008
v -0.3 0.9 -2.98023e-008
v -0.2 0 -2.98023e-008
v -0.2 0.1 -2.98023e-008
v -0.2 0.2 -2.98023e-008
v -0.2 0.3 -2.98023e-008
v -0.2 0.4 -2.98023e-008
v -0.2 0.5 -2.98023e-008
v -0.2 0.6 -2.98023e-008
v -0.2 0.8 -2.98023e-008
v -0.2 0.9 -2.98023e-008
v -0.2 1.1 -2.98023e-008
v -0.2 1.2 -2.98023e-008
v -0.1 0 -2.98023e-008
v -0.1 0.1 -2.98023e-008
v -0.1 0.2 -2.98023e-008
v -0.1 0.3 -2.98023e-008
v -0.1 1.1 -2.98023e-008
v -0.1 1.2 -2.98023e-008
v 0.1 0 -2.98023e-008
v 0.1 0.1 -2.98023e-008
v 0.1 0.2 -2.98023e-008
v 0.1 0.3 -2.98023e-008
v 0.1 1.1 -2.98023e-008
v 0.1 1.2 -2.98023e-008
v 0.2 0 -2.98023e-008
v 0.2 0.1 -2.98023e-008
v 0.2 0.2 -2.98023e-008
v 0.2 0.3 -2.98023e-008
v 0.2 0.4 -2.98023e-008
v 0.2 0.5 -2.98023e-008
v 0.2 0.6 -2.98023e-008
v 0.2 0.8 -2.98023e-008
v 0.2 0.9 -2.98023e-008
v 0.2 1.1 -2.98023e-008
v 0.2 1.2 -2.98023e-008
v 0.3 0.3 -2.98023e-008
v 0.3 0.5 -2.98023e-008
v 0.3 0.6 -2.98023e-008
v 0.3 0.8 -2.98023e-008
v 0.3 0.9 -2.98023e-008
v 0.3 1.1 -2.98023e-008
v 0.3 1.2 -2.98023e-008
v 0.3 1.3 -2.98023e-008
v 0.4 1.2 -2.98023e-008
v 0.4 1.3 -2.98023e-008
v -0.3 0.3 -0.2
v -0.3 0.4 -0.2
v -0.2 0.3 -0.2
v -0.2 0.4 -0.2
v -0.1 0.2 -0.2
v -0.1 0.3 -0.2
v 0.1 0.2 -0.2
v 0.1 0.3 -0.2
v -0.3 0.3 0.1
v -0.3 0.4 0.1
v -0.2 0.3 0.1
v -0.2 0.4 0.1
v -0.3 0.3 -0.1
v -0.3 0.4 -0.1
v -0.3 0.5 -0.1
v -0.3 0.6 -0.1
v -0.3 0.7 -0.1
v -0.2 0 -0.1
v -0.2 0.1 -0.1
v -0.2 0.2 -0.1
v -0.2 0.3 -0.1
v -0.2 0.4 -0.1
v -0.2 0.5 -0.1
v -0.2 0.6 -0.1
v -0.2 0.7 -0.1
v -0.1 0 -0.1
v -0.1 0.1 -0.1
v -0.1 0.2 -0.1
v -0.1 0.3 -0.1
v 0.1 0 -0.1
v 0.1 0.1 -0.1
v 0.1 0.2 -0.1
v 0.1 0.3 -0.1
v 0.2 0 -0.1
v 0.2 0.1 -0.1
v 0.2 0.2 -0.1
v 0.2 0.3 -0.1
v 0.2 0.4 -0.1
v 0.2 0.5 -0.1
v 0.2 0.6 -0.1
v 0.2 0.7 -0.1
v 0.3 0.3 -0.1
v 0.3 0.5 -0.1
v 0.3 0.6 -0.1
v 0.3 0.7 -0.1
v -0.3 0.2 -0.2
v -0.3 0.3 -0.2
v -0.3 0.7 -0.2
v -0.3 0.8 -0.2
v -0.3 1 -0.2
v -0.3 1.1 -0.2
v -0.2 0.2 -0.2
v -0.2 0.3 -0.2
v -0.2 0.4 -0.2
v -0.2 0.5 -0.2
v -0.2 0.6 -0.2
v -0.2 0.7 -0.2
v -0.2 0.8 -0.2
v -0.2 1 -0.2
v -0.2 1.1 -0.2
v -0.2 1.2 -0.2
v -0.1 0.3 -0.2
v -0.1 0.4 -0.2
v -0.1 0.6 -0.2
v -0.1 1.1 -0.2
v -0.1 1.2 -0.2
v 0.1 0.3 -0.2
v 0.1 0.4 -0.2
v 0.1 0.6 -0.2
v 0.1 1.1 -0.2
v 0.1 1.2 -0.2
v 0.2 0.3 -0.2
v 0.2 0.4 -0.2
v 0.2 0.6 -0.2
v 0.2 0.7 -0.2
v 0.2 0.8 -0.2
v 0.2 0.9 -0.2
v 0.2 1.1 -0.2
v 0.2 1.2 -0.2
v 0.3 0.7 -0.2
v 0.3 0.8 -0.2
v 0.3 0.9 -0.2
v 0.3 1.1 -0.2
v 0.3 1.2 -0.2
v 0.3 1.3 -0.2
v 0.4 1.2 -0.2
v 0.4 1.3 -0.2
v -0.3 0.3 -0.3
v -0.3 0.4 -0.3
v -0.3 0.8 -0.3
v -0.3 1 -0.3
v -0.2 0.3 -0.3
v -0.2 0.4 -0.3
v -0.2 0.6 -0.3
v -0.2 0.8 -0.3
v -0.2 1 -0.3
v -0.1 0.2 -0.3
v -0.1 0.6 -0.3
v -0.1 1.1 -0.3
v -0.1 1.2 -0.3
v 2.98023e-008 1.1 -0.3
v 0.1 0.2 -0.3
v 0.1 0.6 -0.3
v 0.1 1.1 -0.3
v 0.1 1.2 -0.3
v 0.2 0.6 -0.3
v 0.2 0.8 -0.3
v 0.2 0.9 -0.3
v 0.2 1.1 -0.3
v 0.3 0.9 -0.3
v 0.3 1.1 -0.3
v -0.3 0.4 -0.4
v -0.3 0.5 -0.4
v -0.2 0.4 -0.4
v -0.2 0.5 -0.4
v -0.2 0.8 -0.4
v -0.2 1.1 -0.4
v 2.98023e-008 1 -0.4
v 2.98023e-008 1.1 -0.4
v 0.1 0.9 -0.4
v 0.1 1 -0.4
v 0.2 0.8 -0.4
v 0.2 0.9 -0.4
v 0.2 1.1 -0.4
v -0.2 0 -2.98023e-008
v -0.1 0 -2.98023e-008
v 0.1 0 -2.98023e-008
v 0.2 0 -2.98023e-008
v -0.2 0 -0.1
v -0.1 0 -0.1
v 0.1 0 -0.1
v 0.2 0 -0.1
v -0.3 0.2 0.1
v -0.2 0.2 0.1
v -0.2 0.2 -2.98023e-008
v -0.2 0.2 -0.1
v -0.3 0.2 -0.2
v -0.2 0.2 -0.2
v -0.1 0.2 -0.2
v 0.1 0.2 -0.2
v -0.1 0.2 -0.3
v 0.1 0.2 -0.3
v -0.3 0.3 0.2
v -0.2 0.3 0.2
v -0.3 0.3 0.1
v -0.2 0.3 0.1
v -0.1 0.3 0.1
v 0.1 0.3 0.1
v 0.2 0.3 0.1
v -0.2 0.3 -2.98023e-008
v -0.1 0.3 -2.98023e-008
v 0.1 0.3 -2.98023e-008
v 0.2 0.3 -2.98023e-008
v 0.3 0.3 -2.98023e-008
v -0.2 0.3 -0.1
v -0.1 0.3 -0.1
v 0.1 0.3 -0.1
v 0.2 0.3 -0.1
v 0.3 0.3 -0.1
v -0.3 0.3 -0.2
v -0.2 0.3 -0.2
v -0.1 0.3 -0.2
v 0.1 0.3 -0.2
v 0.2 0.3 -0.2
v -0.3 0.3 -0.3
v -0.2 0.3 -0.3
v -0.3 0.4 0.3
v -0.2 0.4 0.3
v -0.3 0.4 0.2
v -0.2 0.4 0.2
v -0.3 0.4 0.1
v -0.2 0.4 0.1
v -0.3 0.4 -2.98023e-008
v -0.2 0.4 -2.98023e-008
v -0.3 0.4 -0.1
v -0.2 0.4 -0.1
v -0.3 0.4 -0.2
v -0.2 0.4 -0.2
v -0.3 0.4 -0.3
v -0.2 0.4 -0.3
v -0.3 0.4 -0.4
v -0.2 0.4 -0.4
v -0.3 0.6 0.2
v -0.1 0.6 0.2
v 0.1 0.6 0.2
v 0.3 0.6 0.2
v -0.2 0.6 0.1
v -0.1 0.6 0.1
v 0.1 0.6 0.1
v 0.2 0.6 0.1
v -0.3 0.6 -2.98023e-008
v -0.2 0.6 -2.98023e-008
v 0.2 0.6 -2.98023e-008
v 0.3 0.6 -2.98023e-008
v -0.2 0.6 -0.2
v -0.1 0.6 -0.2
v 0.1 0.6 -0.2
v 0.2 0.6 -0.2
v -0.2 0.6 -0.3
v -0.1 0.6 -0.3
v 0.1 0.6 -0.3
v 0.2 0.6 -0.3
v -0.3 0.7 -0.1
v -0.2 0.7 -0.1
v 0.2 0.7 -0.1
v 0.3 0.7 -0.1
v -0.3 0.7 -0.2
v -0.2 0.7 -0.2
v 0.2 0.7 -0.2
v 0.3 0.7 -0.2
v -0.3 0.8 -0.2
v -0.2 0.8 -0.2
v -0.3 0.8 -0.3
v -0.2 0.8 -0.3
v 0.2 0.8 -0.3
v -0.2 0.8 -0.4
v 0.2 0.8 -0.4
v -0.2 0.9 0.2
v 0.1 0.9 0.2
v 0.2 0.9 0.2
v -0.3 0.9 0.1
v -0.2 0.9 0.1
v -0.1 0.9 0.1
v 0.1 0.9 0.1
v 0.2 0.9 0.1
v 0.3 0.9 0.1
v -0.3 0.9 -2.98023e-008
v -0.2 0.9 -2.98023e-008
v 0.2 0.9 -2.98023e-008
v 0.3 0.9 -2.98023e-008
v 0.2 0.9 -0.2
v 0.3 0.9 -0.2
v 0.2 0.9 -0.3
v 0.3 0.9 -0.3
v 0.3 1.2 -2.98023e-008
v 0.4 1.2 -2.98023e-008
v 0.3 1.2 -0.2
v 0.4 1.2 -0.2
v -0.3 0.3 0.1
v -0.2 0.3 0.1
v -0.3 0.3 -2.98023e-008
v -0.2 0.3 -2.98023e-008
v -0.3 0.3 -0.1
v -0.2 0.3 -0.1
v -0.3 0.3 -0.2
v -0.2 0.3 -0.2
v -0.3 0.5 0.3
v -0.2 0.5 0.3
v -0.3 0.5 0.2
v -0.2 0.5 0.2
v -0.2 0.5 0.1
v -0.3 0.5 -2.98023e-008
v -0.2 0.5 -2.98023e-008
v -0.3 0.5 -0.1
v -0.2 0.5 -0.1
v -0.2 0.5 -0.2
v -0.3 0.5 -0.3
v -0.2 0.5 -0.3
v -0.3 0.5 -0.4
v -0.2 0.5 -0.4
v -0.3 0.7 0.2
v -0.1 0.7 0.2
v 0.1 0.7 0.2
v 0.3 0.7 0.2
v -0.3 0.7 0.1
v -0.2 0.7 0.1
v -0.1 0.7 0.1
v 0.1 0.7 0.1
v 0.2 0.7 0.1
v 0.3 0.7 0.1
v -0.3 0.8 0.1
v -0.2 0.8 0.1
v 0.2 0.8 0.1
v 0.3 0.8 0.1
v -0.3 0.8 -2.98023e-008
v -0.2 0.8 -2.98023e-008
v 0.2 0.8 -2.98023e-008
v 0.3 0.8 -2.98023e-008
v -0.3 1 -0.2
v -0.2 1 -0.2
v -0.3 1 -0.3
v -0.2 1 -0.3
v -0.2 1.1 0.2
v 2.98023e-008 1.1 0.2
v 0.2 1.1 0.2
v -0.3 1.1 0.1
v -0.2 1.1 0.1
v -0.1 1.1 0.1
v 2.98023e-008 1.1 0.1
v 0.1 1.1 0.1
v 0.2 1.1 0.1
v 0.3 1.1 0.1
v -0.2 1.1 -2.98023e-008
v -0.1 1.1 -2.98023e-008
v 0.1 1.1 -2.98023e-008
v 0.2 1.1 -2.98023e-008
v 0.3 1.1 -2.98023e-008
v -0.3 1.1 -0.2
v -0.2 1.1 -0.2
v -0.1 1.1 -0.2
v 0.1 1.1 -0.2
v 0.2 1.1 -0.2
v 0.3 1.1 -0.2
v -0.1 1.1 -0.3
v 2.98023e-008 1.1 -0.3
v 0.1 1.1 -0.3
v 0.2 1.1 -0.3
v 0.3 1.1 -0.3
v -0.2 1.1 -0.4
v 2.98023e-008 1.1 -0.4
v 0.2 1.1 -0.4
v -0.1 1.2 0.1
v 0.1 1.2 0.1
v -0.2 1.2 -2.98023e-008
v -0.1 1.2 -2.98023e-008
v 0.1 1.2 -2.98023e-008
v 0.2 1.2 -2.98023e-008
v 0.3 1.2 -2.98023e-008
v -0.2 1.2 -0.2
v -0.1 1.2 -0.2
v 0.1 1.2 -0.2
v 0.2 1.2 -0.2
v 0.3 1.2 -0.2
v -0.1 1.2 -0.3
v 0.1 1.2 -0.3
v 0.3 1.3 -2.98023e-008
v 0.4 1.3 -2.98023e-008
v 0.3 1.3 -0.2
v 0.4 1.3 -0.2

# faces
f 4/9/1 2/9/1 1/9/1
f 5/9/1 2/9/1 4/9/1
f 6/9/1 2/9/1 5/9/1
f 7/9/1 2/9/1 6/9/1
f 10/9/1 4/9/1 3/9/1
f 11/9/1 4/9/1 10/9/1
f 12/10/1 6/10/1 5/10/1
f 13/10/1 6/10/1 12/10/1
f 14/9/1 8/9/1 7/9/1
f 15/9/1 8/9/1 14/9/1
f 17/9/1 10/9/1 9/9/1
f 18/12/1 11/12/1 10/12/1
f 18/9/1 10/9/1 17/9/1
f 18/12/1 12/12/1 11/12/1
f 19/10/1 13/10/1 12/10/1
f 19/12/1 12/12/1 18/12/1
f 20/12/1 15/12/1 14/12/1
f 20/10/1 13/10/1 19/10/1
f 20/12/1 14/12/1 13/12/1
f 21/9/1 16/9/1 15/9/1
f 21/12/1 15/12/1 20/12/1
f 22/9/1 16/9/1 21/9/1
f 24/5/1 20/5/1 19/5/1
f 25/5/1 20/5/1 24/5/1
f 26/1/1 24/1/1 23/1/1
f 27/1/1 24/1/1 26/1/1
f 28/8/1 25/8/1 24/8/1
f 28/1/1 24/1/1 27/1/1
f 29/8/1 25/8/1 28/8/1
f 31/1/1 29/1/1 28/1/1
f 31/1/1 30/1/1 29/1/1
f 31/1/1 28/1/1 27/1/1
f 32/1/1 30/1/1 31/1/1
f 33/1/1 30/1/1 32/1/1
f 36/8/1 34/8/1 33/8/1
f 36/8/1 33/8/1 32/8/1
f 37/8/1 34/8/1 36/8/1
f 37/8/1 36/8/1 35/8/1
f 38/8/1 34/8/1 37/8/1
f 39/8/1 37/8/1 35/8/1
f 40/8/1 37/8/1 39/8/1
f 43/8/1 42/8/1 41/8/1
f 44/8/1 42/8/1 43/8/1
f 45/5/1 44/5/1 43/5/1
f 46/5/1 44/5/1 45/5/1
f 51/7/1 48/7/1 47/7/1
f 52/7/1 48/7/1 51/7/1
f 53/7/1 50/7/1 49/7/1
f 54/7/1 50/7/1 53/7/1
f 59/8/1 56/8/1 55/8/1
f 60/8/1 56/8/1 59/8/1
f 61/8/1 58/8/1 57/8/1
f 62/8/1 58/8/1 61/8/1
f 64/7/1 62/7/1 61/7/1
f 65/1/1 63/1/1 62/1/1
f 65/7/1 62/7/1 64/7/1
f 68/1/1 63/1/1 65/1/1
f 69/1/1 63/1/1 68/1/1
f 72/15/1 67/15/1 66/15/1
f 73/15/1 67/15/1 72/15/1
f 75/8/1 70/8/1 69/8/1
f 76/8/1 72/8/1 71/8/1
f 77/8/1 72/8/1 76/8/1
f 79/8/1 75/8/1 74/8/1
f 80/8/1 70/8/1 75/8/1
f 80/8/1 75/8/1 79/8/1
f 81/8/1 79/8/1 78/8/1
f 82/8/1 79/8/1 81/8/1
f 85/1/1 84/1/1 83/1/1
f 86/1/1 84/1/1 85/1/1
f 87/1/1 84/1/1 86/1/1
f 88/1/1 84/1/1 87/1/1
f 93/8/1 90/8/1 89/8/1
f 94/8/1 90/8/1 93/8/1
f 95/8/1 92/8/1 91/8/1
f 96/8/1 92/8/1 95/8/1
f 99/8/1 98/8/1 97/8/1
f 100/8/1 98/8/1 99/8/1
f 101/5/1 100/5/1 99/5/1
f 102/5/1 100/5/1 101/5/1
f 103/6/1 102/6/1 101/6/1
f 104/6/1 102/6/1 103/6/1
f 107/1/1 106/1/1 105/1/1
f 108/1/1 106/1/1 107/1/1
f 111/4/1 110/4/1 109/4/1
f 112/4/1 110/4/1 111/4/1
f 113/9/2 114/9/2 118/9/2
f 118/9/2 114/9/2 119/9/2
f 115/9/2 116/9/2 120/9/2
f 120/9/2 116/9/2 121/9/2
f 117/9/2 118/9/2 124/9/2
f 124/9/2 118/9/2 125/9/2
f 121/9/2 122/9/2 126/9/2
f 126/9/2 122/9/2 127/9/2
f 123/9/2 124/9/2 129/9/2
f 124/12/2 125/12/2 130/12/2
f 129/9/2 124/9/2 130/9/2
f 130/12/2 125/12/2 131/12/2
f 126/12/2 127/12/2 132/12/2
f 127/9/2 128/9/2 133/9/2
f 132/12/2 127/12/2 133/12/2
f 133/9/2 128/9/2 134/9/2
f 135/8/2 136/8/2 137/8/2
f 137/8/2 136/8/2 138/8/2
f 137/5/2 138/5/2 139/5/2
f 139/5/2 138/5/2 140/5/2
f 139/6/2 140/6/2 141/6/2
f 141/6/2 140/6/2 142/6/2
f 143/1/2 144/1/2 145/1/2
f 145/1/2 144/1/2 146/1/2
f 147/1/2 148/1/2 149/1/2
f 149/1/2 148/1/2 150/1/2
f 150/1/2 148/1/2 151/1/2
f 151/1/2 148/1/2 152/1/2
f 153/8/2 154/8/2 157/8/2
f 157/8/2 154/8/2 158/8/2
f 155/8/2 156/8/2 159/8/2
f 159/8/2 156/8/2 160/8/2
f 161/8/2 162/8/2 163/8/2
f 163/8/2 162/8/2 164/8/2
f 163/5/2 164/5/2 165/5/2
f 165/5/2 164/5/2 166/5/2
f 165/6/2 166/6/2 168/6/2
f 168/6/2 166/6/2 169/6/2
f 167/7/2 168/7/2 171/7/2
f 171/7/2 168/7/2 172/7/2
f 169/7/2 170/7/2 173/7/2
f 173/7/2 170/7/2 174/7/2
f 171/9/2 172/9/2 175/9/2
f 175/9/2 172/9/2 176/9/2
f 173/8/2 174/8/2 177/8/2
f 175/8/2 176/8/2 178/8/2
f 178/8/2 176/8/2 179/8/2
f 177/8/2 174/8/2 180/8/2
f 180/8/2 174/8/2 181/8/2
f 180/7/2 181/7/2 183/7/2
f 181/1/2 182/1/2 184/1/2
f 183/7/2 181/7/2 184/7/2
f 184/1/2 182/1/2 187/1/2
f 187/1/2 182/1/2 188/1/2
f 185/15/2 186/15/2 191/15/2
f 191/15/2 186/15/2 192/15/2
f 188/8/2 189/8/2 193/8/2
f 187/8/2 188/8/2 193/8/2
f 193/8/2 189/8/2 194/8/2
f 194/8/2 189/8/2 195/8/2
f 190/9/2 191/9/2 196/9/2
f 196/9/2 191/9/2 197/9/2
f 194/9/2 195/9/2 198/9/2
f 198/9/2 195/9/2 199/9/2
f 200/11/2 201/11/2 202/11/2
f 202/11/2 201/11/2 203/11/2
f 202/5/2 203/5/2 205/5/2
f 205/5/2 203/5/2 206/5/2
f 204/1/2 205/1/2 207/1/2
f 207/1/2 205/1/2 208/1/2
f 205/8/2 206/8/2 209/8/2
f 208/1/2 205/1/2 209/1/2
f 209/8/2 206/8/2 210/8/2
f 209/1/2 210/1/2 212/1/2
f 210/1/2 211/1/2 212/1/2
f 208/1/2 209/1/2 212/1/2
f 212/1/2 211/1/2 213/1/2
f 213/1/2 211/1/2 214/1/2
f 213/8/2 214/8/2 216/8/2
f 216/8/2 214/8/2 217/8/2
f 216/8/2 217/8/2 219/8/2
f 217/8/2 218/8/2 219/8/2
f 215/8/2 216/8/2 219/8/2
f 219/8/2 218/8/2 220/8/2
f 220/8/2 218/8/2 221/8/2
f 221/8/2 218/8/2 222/8/2
f 220/5/2 221/5/2 223/5/2
f 223/5/2 221/5/2 224/5/2
f 225/4/2 226/4/2 227/4/2
f 227/4/2 226/4/2 228/4/2
f 231/9/3 230/9/3 229/9/3
f 232/9/3 230/9/3 231/9/3
f 237/9/3 234/9/3 233/9/3
f 238/9/3 234/9/3 237/9/3
f 241/1/3 236/1/3 235/1/3
f 242/1/3 236/1/3 241/1/3
f 243/8/3 240/8/3 239/8/3
f 244/8/3 240/8/3 243/8/3
f 247/8/3 243/8/3 239/8/3
f 248/9/3 244/9/3 243/9/3
f 248/8/3 243/8/3 247/8/3
f 249/9/3 248/9/3 247/9/3
f 250/9/3 244/9/3 248/9/3
f 250/9/3 248/9/3 249/9/3
f 251/1/3 246/1/3 245/1/3
f 252/1/3 246/1/3 251/1/3
f 259/9/3 254/9/3 253/9/3
f 260/9/3 254/9/3 259/9/3
f 264/1/3 256/1/3 255/1/3
f 265/1/3 256/1/3 264/1/3
f 266/8/3 258/8/3 257/8/3
f 267/8/3 258/8/3 266/8/3
f 268/7/3 261/7/3 260/7/3
f 269/9/3 262/9/3 261/9/3
f 269/7/3 261/7/3 268/7/3
f 270/8/3 263/8/3 262/8/3
f 270/9/3 262/9/3 269/9/3
f 271/8/3 263/8/3 270/8/3
f 272/10/3 265/10/3 264/10/3
f 273/15/3 266/15/3 265/15/3
f 273/10/3 265/10/3 272/10/3
f 274/15/3 266/15/3 273/15/3
f 277/8/3 276/8/3 275/8/3
f 278/13/3 269/13/3 268/13/3
f 279/8/3 271/8/3 270/8/3
f 279/13/3 269/13/3 278/13/3
f 279/8/3 270/8/3 269/8/3
f 280/8/3 271/8/3 279/8/3
f 281/7/3 272/7/3 271/7/3
f 281/8/3 271/8/3 280/8/3
f 282/11/3 273/11/3 272/11/3
f 282/7/3 272/7/3 281/7/3
f 283/10/3 274/10/3 273/10/3
f 283/11/3 273/11/3 282/11/3
f 284/10/3 274/10/3 283/10/3
f 285/8/3 276/8/3 277/8/3
f 286/8/3 276/8/3 285/8/3
f 287/7/3 279/7/3 278/7/3
f 288/9/3 280/9/3 279/9/3
f 288/7/3 279/7/3 287/7/3
f 289/8/3 281/8/3 280/8/3
f 289/9/3 280/9/3 288/9/3
f 290/8/3 281/8/3 289/8/3
f 291/11/3 283/11/3 282/11/3
f 292/15/3 284/15/3 283/15/3
f 292/11/3 283/11/3 291/11/3
f 293/15/3 284/15/3 292/15/3
f 295/1/3 292/1/3 291/1/3
f 296/1/3 292/1/3 295/1/3
f 297/8/3 294/8/3 293/8/3
f 298/8/3 294/8/3 297/8/3
f 308/10/3 300/10/3 299/10/3
f 309/10/3 300/10/3 308/10/3
f 310/5/3 302/5/3 301/5/3
f 311/5/3 302/5/3 310/5/3
f 312/8/3 304/8/3 303/8/3
f 313/8/3 304/8/3 312/8/3
f 316/8/3 306/8/3 305/8/3
f 317/5/3 307/5/3 306/5/3
f 317/8/3 306/8/3 316/8/3
f 318/6/3 308/6/3 307/6/3
f 318/5/3 307/5/3 317/5/3
f 319/6/3 308/6/3 318/6/3
f 320/8/3 315/8/3 314/8/3
f 321/8/3 315/8/3 320/8/3
f 328/8/3 323/8/3 322/8/3
f 329/5/3 324/5/3 323/5/3
f 329/8/3 323/8/3 328/8/3
f 330/6/3 325/6/3 324/6/3
f 330/5/3 324/5/3 329/5/3
f 331/6/3 325/6/3 330/6/3
f 337/8/3 327/8/3 326/8/3
f 338/8/3 327/8/3 337/8/3
f 339/11/3 332/11/3 331/11/3
f 339/11/3 333/11/3 332/11/3
f 340/5/3 334/5/3 333/5/3
f 340/11/3 333/11/3 339/11/3
f 341/5/3 334/5/3 340/5/3
f 342/8/3 336/8/3 335/8/3
f 343/8/3 336/8/3 342/8/3
f 344/5/3 338/5/3 337/5/3
f 345/5/3 338/5/3 344/5/3
f 347/4/3 346/4/3 345/4/3
f 348/4/3 346/4/3 347/4/3
f 351/9/3 350/9/3 349/9/3
f 352/9/3 350/9/3 351/9/3
f 355/1/3 354/1/3 353/1/3
f 356/1/3 354/1/3 355/1/3
f 357/9/4 358/9/4 359/9/4
f 359/9/4 358/9/4 360/9/4
f 361/10/4 362/10/4 369/10/4
f 369/10/4 362/10/4 370/10/4
f 363/5/4 364/5/4 371/5/4
f 364/8/4 365/8/4 372/8/4
f 371/5/4 364/5/4 372/5/4
f 372/8/4 365/8/4 373/8/4
f 366/8/4 367/8/4 374/8/4
f 367/5/4 368/5/4 375/5/4
f 374/8/4 367/8/4 375/8/4
f 368/6/4 369/6/4 376/6/4
f 375/5/4 368/5/4 376/5/4
f 376/6/4 369/6/4 377/6/4
f 378/8/4 379/8/4 382/8/4
f 379/5/4 380/5/4 383/5/4
f 382/8/4 379/8/4 383/8/4
f 380/6/4 381/6/4 384/6/4
f 383/5/4 380/5/4 384/5/4
f 384/6/4 381/6/4 385/6/4
f 386/11/4 387/11/4 390/11/4
f 385/11/4 386/11/4 390/11/4
f 387/5/4 388/5/4 391/5/4
f 390/11/4 387/11/4 391/11/4
f 388/8/4 389/8/4 392/8/4
f 391/5/4 388/5/4 392/5/4
f 392/8/4 389/8/4 393/8/4
f 394/9/4 395/9/4 400/9/4
f 400/9/4 395/9/4 401/9/4
f 396/1/4 397/1/4 405/1/4
f 405/1/4 397/1/4 406/1/4
f 398/8/4 399/8/4 407/8/4
f 407/8/4 399/8/4 408/8/4
f 401/7/4 402/7/4 410/7/4
f 403/8/4 404/8/4 411/8/4
f 410/7/4 402/7/4 411/7/4
f 402/8/4 403/8/4 411/8/4
f 411/8/4 404/8/4 412/8/4
f 408/8/4 409/8/4 413/8/4
f 413/8/4 409/8/4 414/8/4
f 415/7/4 416/7/4 420/7/4
f 416/8/4 417/8/4 421/8/4
f 420/7/4 416/7/4 421/7/4
f 421/8/4 417/8/4 422/8/4
f 418/8/4 419/8/4 426/8/4
f 426/8/4 419/8/4 427/8/4
f 423/1/4 424/1/4 428/1/4
f 424/8/4 425/8/4 429/8/4
f 428/1/4 424/1/4 429/1/4
f 429/8/4 425/8/4 430/8/4
f 426/5/4 427/5/4 431/5/4
f 431/5/4 427/5/4 432/5/4
f 432/4/4 433/4/4 434/4/4
f 434/4/4 433/4/4 435/4/4
f 436/9/4 437/9/4 440/9/4
f 440/9/4 437/9/4 441/9/4
f 438/8/4 439/8/4 443/8/4
f 443/8/4 439/8/4 444/8/4
f 442/1/4 443/1/4 446/1/4
f 447/8/4 448/8/4 449/8/4
f 445/1/4 446/1/4 450/1/4
f 446/1/4 443/1/4 451/1/4
f 450/1/4 446/1/4 451/1/4
f 449/8/4 448/8/4 452/8/4
f 452/8/4 448/8/4 453/8/4
f 451/1/4 443/1/4 454/1/4
f 454/1/4 443/1/4 455/1/4
f 456/8/4 457/8/4 458/8/4
f 458/8/4 457/8/4 459/8/4
f 460/9/4 461/9/4 462/9/4
f 462/9/4 461/9/4 463/9/4
f 464/8/4 465/8/4 466/8/4
f 466/8/4 465/8/4 467/8/4
f 464/8/4 466/8/4 468/8/4
f 466/9/4 467/9/4 469/9/4
f 468/8/4 466/8/4 469/8/4
f 464/8/4 468/8/4 470/8/4
f 468/9/4 469/9/4 471/9/4
f 470/8/4 468/8/4 471/8/4
f 469/9/4 467/9/4 472/9/4
f 471/9/4 469/9/4 472/9/4
f 477/8/5 474/8/5 473/8/5
f 478/8/5 474/8/5 477/8/5
f 479/8/5 476/8/5 475/8/5
f 480/8/5 476/8/5 479/8/5
f 483/9/5 482/9/5 481/9/5
f 484/9/5 483/9/5 481/9/5
f 485/9/5 484/9/5 481/9/5
f 486/9/5 484/9/5 485/9/5
f 489/1/5 488/1/5 487/1/5
f 490/1/5 488/1/5 489/1/5
f 493/9/5 492/9/5 491/9/5
f 494/9/5 492/9/5 493/9/5
f 498/7/5 495/7/5 494/7/5
f 499/13/5 496/13/5 495/13/5
f 499/7/5 495/7/5 498/7/5
f 500/7/5 497/7/5 496/7/5
f 500/13/5 496/13/5 499/13/5
f 501/7/5 497/7/5 500/7/5
f 504/6/5 500/6/5 499/6/5
f 505/6/5 500/6/5 504/6/5
f 506/11/5 502/11/5 501/11/5
f 507/11/5 502/11/5 506/11/5
f 509/7/5 505/7/5 504/7/5
f 509/7/5 504/7/5 503/7/5
f 509/7/5 506/7/5 505/7/5
f 510/7/5 506/7/5 509/7/5
f 511/7/5 506/7/5 510/7/5
f 512/7/5 506/7/5 511/7/5
f 513/9/5 509/9/5 508/9/5
f 514/9/5 509/9/5 513/9/5
f 517/9/5 516/9/5 515/9/5
f 518/9/5 516/9/5 517/9/5
f 521/12/5 520/12/5 519/12/5
f 522/12/5 520/12/5 521/12/5
f 525/12/5 524/12/5 523/12/5
f 526/12/5 524/12/5 525/12/5
f 529/9/5 528/9/5 527/9/5
f 530/9/5 528/9/5 529/9/5
f 535/1/5 532/1/5 531/1/5
f 536/1/5 532/1/5 535/1/5
f 537/1/5 534/1/5 533/1/5
f 538/1/5 534/1/5 537/1/5
f 539/1/5 535/1/5 531/1/5
f 540/1/5 535/1/5 539/1/5
f 541/1/5 534/1/5 538/1/5
f 542/1/5 534/1/5 541/1/5
f 547/1/5 544/1/5 543/1/5
f 548/1/5 544/1/5 547/1/5
f 549/1/5 546/1/5 545/1/5
f 550/1/5 546/1/5 549/1/5
f 555/1/5 552/1/5 551/1/5
f 556/1/5 552/1/5 555/1/5
f 557/1/5 554/1/5 553/1/5
f 558/1/5 554/1/5 557/1/5
f 561/8/5 560/8/5 559/8/5
f 562/8/5 560/8/5 561/8/5
f 564/8/5 563/8/5 562/8/5
f 565/8/5 563/8/5 564/8/5
f 570/8/5 567/8/5 566/8/5
f 571/8/5 567/8/5 570/8/5
f 572/9/5 568/9/5 567/9/5
f 572/8/5 567/8/5 571/8/5
f 573/9/5 568/9/5 572/9/5
f 575/8/5 570/8/5 569/8/5
f 576/8/5 570/8/5 575/8/5
f 577/8/5 574/8/5 573/8/5
f 578/8/5 574/8/5 577/8/5
f 581/8/5 580/8/5 579/8/5
f 582/8/5 580/8/5 581/8/5
f 585/4/5 584/4/5 583/4/5
f 586/4/5 584/4/5 585/4/5
f 587/9/6 588/9/6 589/9/6
f 589/9/6 588/9/6 590/9/6
f 591/9/6 592/9/6 593/9/6
f 593/9/6 592/9/6 594/9/6
f 595/9/6 596/9/6 597/9/6
f 597/9/6 596/9/6 598/9/6
f 597/12/6 598/12/6 599/12/6
f 597/12/6 599/12/6 600/12/6
f 600/12/6 599/12/6 601/12/6
f 602/12/6 603/12/6 604/12/6
f 602/12/6 604/12/6 605/12/6
f 605/12/6 604/12/6 606/12/6
f 605/9/6 606/9/6 607/9/6
f 607/9/6 606/9/6 608/9/6
f 609/1/6 610/1/6 613/1/6
f 613/1/6 610/1/6 614/1/6
f 614/1/6 610/1/6 615/1/6
f 611/1/6 612/1/6 616/1/6
f 616/1/6 612/1/6 617/1/6
f 617/1/6 612/1/6 618/1/6
f 619/1/6 620/1/6 623/1/6
f 623/1/6 620/1/6 624/1/6
f 621/1/6 622/1/6 625/1/6
f 625/1/6 622/1/6 626/1/6
f 627/8/6 628/8/6 629/8/6
f 629/8/6 628/8/6 630/8/6
f 631/8/6 632/8/6 635/8/6
f 635/8/6 632/8/6 636/8/6
f 632/9/6 633/9/6 637/9/6
f 636/8/6 632/8/6 637/8/6
f 637/9/6 633/9/6 638/9/6
f 638/9/6 633/9/6 639/9/6
f 635/8/6 636/8/6 641/8/6
f 634/8/6 635/8/6 641/8/6
f 641/8/6 636/8/6 642/8/6
f 639/8/6 640/8/6 643/8/6
f 638/8/6 639/8/6 643/8/6
f 643/8/6 640/8/6 644/8/6
f 644/8/6 640/8/6 645/8/6
f 634/8/6 641/8/6 646/8/6
f 646/8/6 641/8/6 647/8/6
f 647/8/6 648/8/6 652/8/6
f 650/8/6 651/8/6 654/8/6
f 649/8/6 650/8/6 654/8/6
f 654/8/6 651/8/6 655/8/6
f 655/8/6 651/8/6 656/8/6
f 652/8/6 653/8/6 657/8/6
f 647/8/6 652/8/6 657/8/6
f 654/9/6 655/9/6 658/9/6
f 657/8/6 653/8/6 658/8/6
f 653/9/6 654/9/6 658/9/6
f 658/9/6 655/9/6 659/9/6
f 660/8/6 661/8/6 663/8/6
f 663/8/6 661/8/6 664/8/6
f 662/8/6 663/8/6 667/8/6
f 663/8/6 664/8/6 667/8/6
f 664/8/6 665/8/6 667/8/6
f 667/8/6 665/8/6 668/8/6
f 668/8/6 665/8/6 669/8/6
f 665/5/6 666/5/6 670/5/6
f 669/8/6 665/8/6 670/8/6
f 670/5/6 666/5/6 671/5/6
f 668/8/6 669/8/6 672/8/6
f 672/8/6 669/8/6 673/8/6
f 674/4/6 675/4/6 676/4/6
f 676/4/6 675/4/6 677/4/6
