# MagicaVoxel @ Ephtracy

# group
o 

# material
mtllib chr_VillageWoman.mtl
usemtl palette

# normals
vn -1 0 0
vn 1 0 0
vn 0 0 1
vn 0 0 -1
vn 0 -1 0
vn 0 1 0

# texcoords
vt 0.162109 0.5
vt 0.166016 0.5
vt 0.376953 0.5
vt 0.380859 0.5
vt 0.384766 0.5
vt 0.400391 0.5
vt 0.404297 0.5
vt 0.974609 0.5
vt 0.990234 0.5
vt 0.994141 0.5

# verts
v -0.4 0.3 0
v -0.4 0.3 -0.1
v -0.4 0.4 0
v -0.4 0.4 -0.1
v -0.3 0.3 0.2
v -0.3 0.3 0.1
v -0.3 0.3 0
v -0.3 0.3 -0.1
v -0.3 0.3 -0.2
v -0.3 0.3 -0.3
v -0.3 0.4 0.2
v -0.3 0.4 0.1
v -0.3 0.4 0
v -0.3 0.4 -0.1
v -0.3 0.4 -0.2
v -0.3 0.4 -0.3
v -0.3 0.5 0
v -0.3 0.5 -0.1
v -0.3 0.6 0.1
v -0.3 0.6 0
v -0.3 0.6 -0.1
v -0.3 0.6 -0.2
v -0.3 0.7 0.2
v -0.3 0.7 0.1
v -0.3 0.7 0
v -0.3 0.7 -0.1
v -0.3 0.7 -0.2
v -0.3 0.8 0.2
v -0.3 0.8 0.1
v -0.3 0.8 0
v -0.3 0.9 0.1
v -0.3 0.9 0
v -0.3 1 0.2
v -0.3 1 0.1
v -0.3 1 0
v -0.3 1 -0.1
v -0.3 1 -0.2
v -0.3 1.1 0.1
v -0.3 1.1 -0.1
v -0.2 0 0
v -0.2 0 -0.1
v -0.2 0.2 0
v -0.2 0.2 -0.1
v -0.2 0.3 0
v -0.2 0.3 -0.1
v -0.2 0.4 0.1
v -0.2 0.4 0
v -0.2 0.4 -0.1
v -0.2 0.4 -0.2
v -0.2 0.5 0.1
v -0.2 0.5 0
v -0.2 0.5 -0.1
v -0.2 0.6 0.1
v -0.2 0.6 0
v -0.2 0.6 -0.1
v -0.2 0.6 -0.2
v -0.2 0.6 -0.3
v -0.2 0.7 0.1
v -0.2 0.7 0
v -0.2 0.7 -0.2
v -0.2 0.7 -0.3
v -0.2 0.8 0.1
v -0.2 0.8 0
v -0.2 1 0.2
v -0.2 1 0.1
v -0.2 1 -0.1
v -0.2 1 -0.2
v -0.2 1 -0.3
v -0.2 1.1 0.2
v -0.2 1.1 0.1
v -0.2 1.1 0
v -0.2 1.1 -0.1
v -0.2 1.1 -0.2
v -0.2 1.1 -0.3
v -0.2 1.2 0
v -0.2 1.2 -0.1
v -0.1 1.1 0.1
v -0.1 1.1 0
v -0.1 1.1 -0.1
v -0.1 1.1 -0.2
v -0.1 1.2 0.1
v -0.1 1.2 0
v -0.1 1.2 -0.1
v -0.1 1.2 -0.2
v 0 0.5 -0.2
v 0 0.5 -0.3
v 0 0.6 -0.2
v 0 0.6 -0.3
v 0.1 0 0
v 0.1 0 -0.1
v 0.1 0.2 0
v 0.1 0.2 -0.1
v 0.1 0.3 0
v 0.1 0.3 -0.1
v 0.2 0.7 0.2
v 0.2 0.7 0.1
v 0.2 0.8 0.2
v 0.2 0.8 0.1
v 0.2 0.9 0.2
v 0.2 0.9 0.1
v -0.2 0.7 0.2
v -0.2 0.7 0.1
v -0.2 0.8 0.2
v -0.2 0.8 0.1
v -0.2 0.9 0.2
v -0.2 0.9 0.1
v -0.1 0 0
v -0.1 0 -0.1
v -0.1 0.2 0
v -0.1 0.2 -0.1
v -0.1 0.3 0
v -0.1 0.3 -0.1
v 0.1 1.1 0.1
v 0.1 1.1 0
v 0.1 1.1 -0.1
v 0.1 1.1 -0.2
v 0.1 1.2 0.1
v 0.1 1.2 0
v 0.1 1.2 -0.1
v 0.1 1.2 -0.2
v 0.2 0 0
v 0.2 0 -0.1
v 0.2 0.2 0
v 0.2 0.2 -0.1
v 0.2 0.3 0
v 0.2 0.3 -0.1
v 0.2 0.4 0.1
v 0.2 0.4 0
v 0.2 0.4 -0.1
v 0.2 0.4 -0.2
v 0.2 0.5 0.1
v 0.2 0.5 0
v 0.2 0.5 -0.1
v 0.2 0.5 -0.2
v 0.2 0.5 -0.3
v 0.2 0.6 0
v 0.2 0.7 0.1
v 0.2 0.7 0
v 0.2 0.7 -0.2
v 0.2 0.7 -0.3
v 0.2 0.8 0.1
v 0.2 0.8 0
v 0.2 1 0.2
v 0.2 1 0.1
v 0.2 1 -0.1
v 0.2 1 -0.2
v 0.2 1 -0.3
v 0.2 1.1 0.2
v 0.2 1.1 0.1
v 0.2 1.1 0
v 0.2 1.1 -0.1
v 0.2 1.1 -0.2
v 0.2 1.1 -0.3
v 0.2 1.2 0
v 0.2 1.2 -0.1
v 0.3 0.3 0.2
v 0.3 0.3 0.1
v 0.3 0.3 0
v 0.3 0.3 -0.1
v 0.3 0.3 -0.2
v 0.3 0.3 -0.3
v 0.3 0.4 0.2
v 0.3 0.4 0.1
v 0.3 0.4 0
v 0.3 0.4 -0.1
v 0.3 0.4 -0.2
v 0.3 0.4 -0.3
v 0.3 0.5 0
v 0.3 0.5 -0.1
v 0.3 0.5 -0.2
v 0.3 0.6 0
v 0.3 0.6 -0.1
v 0.3 0.7 0.2
v 0.3 0.7 0.1
v 0.3 0.7 0
v 0.3 0.7 -0.1
v 0.3 0.7 -0.2
v 0.3 0.8 0.2
v 0.3 0.8 0.1
v 0.3 0.8 0
v 0.3 0.8 -0.1
v 0.3 0.9 0
v 0.3 0.9 -0.1
v 0.3 1 0.2
v 0.3 1 0.1
v 0.3 1 0
v 0.3 1 -0.1
v 0.3 1 -0.2
v 0.3 1.1 0.1
v 0.3 1.1 -0.1
v 0.4 0.3 0
v 0.4 0.3 -0.1
v 0.4 0.4 0
v 0.4 0.4 -0.1
v -0.3 0.3 0.2
v -0.3 0.4 0.2
v -0.3 0.7 0.2
v -0.3 0.8 0.2
v -0.3 1 0.2
v -0.2 0.3 0.2
v -0.2 0.4 0.2
v -0.2 0.7 0.2
v -0.2 0.8 0.2
v -0.2 0.9 0.2
v -0.2 1 0.2
v -0.2 1.1 0.2
v -0.1 0.3 0.2
v -0.1 0.4 0.2
v -0.1 0.9 0.2
v -0.1 1 0.2
v 0 0.3 0.2
v 0 0.4 0.2
v 0 0.9 0.2
v 0 1 0.2
v 0.1 0.3 0.2
v 0.1 0.4 0.2
v 0.2 0.3 0.2
v 0.2 0.4 0.2
v 0.2 0.7 0.2
v 0.2 0.8 0.2
v 0.2 0.9 0.2
v 0.2 1 0.2
v 0.2 1.1 0.2
v 0.3 0.3 0.2
v 0.3 0.4 0.2
v 0.3 0.7 0.2
v 0.3 0.8 0.2
v 0.3 1 0.2
v -0.3 0.6 0.1
v -0.3 0.7 0.1
v -0.3 1 0.1
v -0.3 1.1 0.1
v -0.2 0.4 0.1
v -0.2 0.5 0.1
v -0.2 0.6 0.1
v -0.2 0.7 0.1
v -0.2 0.8 0.1
v -0.2 0.9 0.1
v -0.2 1 0.1
v -0.2 1.1 0.1
v -0.1 0.4 0.1
v -0.1 0.5 0.1
v -0.1 0.6 0.1
v -0.1 0.7 0.1
v -0.1 0.8 0.1
v -0.1 0.9 0.1
v -0.1 1.1 0.1
v -0.1 1.2 0.1
v 0 0.4 0.1
v 0 0.9 0.1
v 0.1 0.4 0.1
v 0.1 0.5 0.1
v 0.1 0.6 0.1
v 0.1 0.7 0.1
v 0.1 0.8 0.1
v 0.1 0.9 0.1
v 0.1 1.1 0.1
v 0.1 1.2 0.1
v 0.2 0.4 0.1
v 0.2 0.5 0.1
v 0.2 0.7 0.1
v 0.2 0.8 0.1
v 0.2 0.9 0.1
v 0.2 1 0.1
v 0.2 1.1 0.1
v 0.3 1 0.1
v 0.3 1.1 0.1
v -0.4 0.3 0
v -0.4 0.4 0
v -0.3 0.3 0
v -0.3 0.4 0
v -0.3 0.5 0
v -0.3 0.6 0
v -0.3 0.7 0
v -0.3 0.8 0
v -0.2 0 0
v -0.2 0.2 0
v -0.2 0.3 0
v -0.2 0.4 0
v -0.2 0.5 0
v -0.2 0.6 0
v -0.2 0.7 0
v -0.2 0.8 0
v -0.2 1.1 0
v -0.2 1.2 0
v -0.1 0 0
v -0.1 0.2 0
v -0.1 0.3 0
v -0.1 1.1 0
v -0.1 1.2 0
v 0.1 0 0
v 0.1 0.2 0
v 0.1 0.3 0
v 0.1 1.1 0
v 0.1 1.2 0
v 0.2 0 0
v 0.2 0.2 0
v 0.2 0.3 0
v 0.2 0.4 0
v 0.2 0.5 0
v 0.2 0.6 0
v 0.2 0.7 0
v 0.2 0.8 0
v 0.2 1.1 0
v 0.2 1.2 0
v 0.3 0.3 0
v 0.3 0.4 0
v 0.3 0.5 0
v 0.3 0.6 0
v 0.3 0.7 0
v 0.3 0.8 0
v 0.4 0.3 0
v 0.4 0.4 0
v -0.3 0.7 0.1
v -0.3 0.8 0.1
v -0.2 0.7 0.1
v -0.2 0.8 0.1
v 0.2 0.7 0.1
v 0.2 0.8 0.1
v 0.3 0.7 0.1
v 0.3 0.8 0.1
v -0.4 0.3 -0.1
v -0.4 0.4 -0.1
v -0.3 0.3 -0.1
v -0.3 0.4 -0.1
v -0.3 0.5 -0.1
v -0.3 0.6 -0.1
v -0.3 1 -0.1
v -0.3 1.1 -0.1
v -0.2 0 -0.1
v -0.2 0.2 -0.1
v -0.2 0.3 -0.1
v -0.2 0.4 -0.1
v -0.2 0.5 -0.1
v -0.2 0.6 -0.1
v -0.2 1 -0.1
v -0.2 1.1 -0.1
v -0.2 1.2 -0.1
v -0.1 0 -0.1
v -0.1 0.2 -0.1
v -0.1 0.3 -0.1
v -0.1 1.1 -0.1
v -0.1 1.2 -0.1
v 0.1 0 -0.1
v 0.1 0.2 -0.1
v 0.1 0.3 -0.1
v 0.1 1.1 -0.1
v 0.1 1.2 -0.1
v 0.2 0 -0.1
v 0.2 0.2 -0.1
v 0.2 0.3 -0.1
v 0.2 0.4 -0.1
v 0.2 0.5 -0.1
v 0.2 1 -0.1
v 0.2 1.1 -0.1
v 0.2 1.2 -0.1
v 0.3 0.3 -0.1
v 0.3 0.4 -0.1
v 0.3 0.5 -0.1
v 0.3 1 -0.1
v 0.3 1.1 -0.1
v 0.4 0.3 -0.1
v 0.4 0.4 -0.1
v -0.3 0.6 -0.2
v -0.3 0.7 -0.2
v -0.3 1 -0.2
v -0.2 0.4 -0.2
v -0.2 0.6 -0.2
v -0.2 0.7 -0.2
v -0.2 1 -0.2
v -0.1 0.4 -0.2
v -0.1 0.5 -0.2
v -0.1 0.6 -0.2
v -0.1 1.1 -0.2
v -0.1 1.2 -0.2
v 0 0.4 -0.2
v 0 0.5 -0.2
v 0 0.6 -0.2
v 0.1 0.4 -0.2
v 0.1 1.1 -0.2
v 0.1 1.2 -0.2
v 0.2 0.4 -0.2
v 0.2 0.5 -0.2
v 0.2 0.7 -0.2
v 0.2 1 -0.2
v 0.3 0.5 -0.2
v 0.3 0.7 -0.2
v 0.3 1 -0.2
v -0.3 0.3 -0.3
v -0.3 0.4 -0.3
v -0.2 0.3 -0.3
v -0.2 0.4 -0.3
v -0.2 0.6 -0.3
v -0.2 0.7 -0.3
v -0.2 1 -0.3
v -0.2 1.1 -0.3
v -0.1 0.3 -0.3
v -0.1 0.4 -0.3
v -0.1 0.8 -0.3
v -0.1 0.9 -0.3
v -0.1 1 -0.3
v -0.1 1.1 -0.3
v 0 0.3 -0.3
v 0 0.4 -0.3
v 0 0.5 -0.3
v 0 0.6 -0.3
v 0 0.7 -0.3
v 0 0.8 -0.3
v 0 0.9 -0.3
v 0.1 0.3 -0.3
v 0.1 0.4 -0.3
v 0.1 0.6 -0.3
v 0.1 0.7 -0.3
v 0.1 1 -0.3
v 0.1 1.1 -0.3
v 0.2 0.3 -0.3
v 0.2 0.4 -0.3
v 0.2 0.5 -0.3
v 0.2 0.7 -0.3
v 0.2 1 -0.3
v 0.2 1.1 -0.3
v 0.3 0.3 -0.3
v 0.3 0.4 -0.3
v -0.2 0 0
v -0.1 0 0
v 0.1 0 0
v 0.2 0 0
v -0.2 0 -0.1
v -0.1 0 -0.1
v 0.1 0 -0.1
v 0.2 0 -0.1
v -0.3 0.3 0.2
v -0.2 0.3 0.2
v -0.1 0.3 0.2
v 0 0.3 0.2
v 0.1 0.3 0.2
v 0.2 0.3 0.2
v 0.3 0.3 0.2
v -0.3 0.3 0.1
v -0.2 0.3 0.1
v 0.2 0.3 0.1
v 0.3 0.3 0.1
v -0.4 0.3 0
v -0.3 0.3 0
v -0.2 0.3 0
v -0.1 0.3 0
v 0.1 0.3 0
v 0.2 0.3 0
v 0.3 0.3 0
v 0.4 0.3 0
v -0.4 0.3 -0.1
v -0.3 0.3 -0.1
v -0.2 0.3 -0.1
v -0.1 0.3 -0.1
v 0.1 0.3 -0.1
v 0.2 0.3 -0.1
v 0.3 0.3 -0.1
v 0.4 0.3 -0.1
v -0.3 0.3 -0.2
v -0.2 0.3 -0.2
v 0.2 0.3 -0.2
v 0.3 0.3 -0.2
v -0.3 0.3 -0.3
v -0.2 0.3 -0.3
v -0.1 0.3 -0.3
v 0 0.3 -0.3
v 0.1 0.3 -0.3
v 0.2 0.3 -0.3
v 0.3 0.3 -0.3
v 0.2 0.5 -0.1
v 0.3 0.5 -0.1
v 0 0.5 -0.2
v 0.2 0.5 -0.2
v 0.3 0.5 -0.2
v 0 0.5 -0.3
v 0.2 0.5 -0.3
v -0.3 0.6 0.1
v -0.2 0.6 0.1
v -0.3 0.6 0
v -0.2 0.6 0
v -0.3 0.6 -0.1
v -0.2 0.6 -0.1
v -0.3 0.6 -0.2
v -0.2 0.6 -0.2
v -0.1 0.6 -0.2
v 0 0.6 -0.2
v -0.2 0.6 -0.3
v 0 0.6 -0.3
v -0.3 0.7 0.2
v -0.2 0.7 0.2
v 0.2 0.7 0.2
v 0.3 0.7 0.2
v -0.3 0.7 0.1
v -0.2 0.7 0.1
v 0.2 0.7 0.1
v 0.3 0.7 0.1
v -0.3 0.8 0.1
v -0.2 0.8 0.1
v 0.2 0.8 0.1
v 0.3 0.8 0.1
v -0.3 0.8 0
v -0.2 0.8 0
v 0.2 0.8 0
v 0.3 0.8 0
v -0.2 0.9 0.2
v -0.1 0.9 0.2
v 0 0.9 0.2
v 0.2 0.9 0.2
v -0.2 0.9 0.1
v -0.1 0.9 0.1
v 0 0.9 0.1
v 0.1 0.9 0.1
v 0.2 0.9 0.1
v -0.3 0.4 0.2
v -0.2 0.4 0.2
v -0.1 0.4 0.2
v 0 0.4 0.2
v 0.1 0.4 0.2
v 0.2 0.4 0.2
v 0.3 0.4 0.2
v -0.3 0.4 0.1
v -0.2 0.4 0.1
v -0.1 0.4 0.1
v 0 0.4 0.1
v 0.1 0.4 0.1
v 0.2 0.4 0.1
v 0.3 0.4 0.1
v -0.4 0.4 0
v -0.3 0.4 0
v -0.2 0.4 0
v 0.2 0.4 0
v 0.3 0.4 0
v 0.4 0.4 0
v -0.4 0.4 -0.1
v -0.3 0.4 -0.1
v -0.2 0.4 -0.1
v 0.2 0.4 -0.1
v 0.3 0.4 -0.1
v 0.4 0.4 -0.1
v -0.3 0.4 -0.2
v -0.2 0.4 -0.2
v -0.1 0.4 -0.2
v 0 0.4 -0.2
v 0.1 0.4 -0.2
v 0.2 0.4 -0.2
v 0.3 0.4 -0.2
v -0.3 0.4 -0.3
v -0.2 0.4 -0.3
v -0.1 0.4 -0.3
v 0 0.4 -0.3
v 0.1 0.4 -0.3
v 0.2 0.4 -0.3
v 0.3 0.4 -0.3
v -0.3 0.7 0.1
v -0.2 0.7 0.1
v -0.3 0.7 0
v -0.2 0.7 0
v -0.3 1 0.2
v -0.2 1 0.2
v 0.2 1 0.2
v 0.3 1 0.2
v -0.3 1 0.1
v -0.2 1 0.1
v 0.2 1 0.1
v 0.3 1 0.1
v -0.3 1 -0.1
v -0.2 1 -0.1
v 0.2 1 -0.1
v 0.3 1 -0.1
v -0.3 1 -0.2
v -0.2 1 -0.2
v 0.2 1 -0.2
v 0.3 1 -0.2
v -0.2 1.1 0.2
v 0.2 1.1 0.2
v -0.3 1.1 0.1
v -0.2 1.1 0.1
v -0.1 1.1 0.1
v 0.1 1.1 0.1
v 0.2 1.1 0.1
v 0.3 1.1 0.1
v -0.2 1.1 0
v -0.1 1.1 0
v 0.1 1.1 0
v 0.2 1.1 0
v -0.3 1.1 -0.1
v -0.2 1.1 -0.1
v -0.1 1.1 -0.1
v 0.1 1.1 -0.1
v 0.2 1.1 -0.1
v 0.3 1.1 -0.1
v -0.2 1.1 -0.2
v -0.1 1.1 -0.2
v 0.1 1.1 -0.2
v 0.2 1.1 -0.2
v -0.2 1.1 -0.3
v -0.1 1.1 -0.3
v 0.1 1.1 -0.3
v 0.2 1.1 -0.3
v -0.1 1.2 0.1
v 0.1 1.2 0.1
v -0.2 1.2 0
v -0.1 1.2 0
v 0 1.2 0
v 0.1 1.2 0
v 0.2 1.2 0
v -0.2 1.2 -0.1
v -0.1 1.2 -0.1
v 0 1.2 -0.1
v 0.1 1.2 -0.1
v 0.2 1.2 -0.1
v -0.1 1.2 -0.2
v 0.1 1.2 -0.2

# faces
f 3/7/1 2/7/1 1/7/1
f 4/7/1 2/7/1 3/7/1
f 11/5/1 6/5/1 5/5/1
f 12/4/1 7/4/1 6/4/1
f 12/5/1 6/5/1 11/5/1
f 13/4/1 7/4/1 12/4/1
f 14/4/1 9/4/1 8/4/1
f 15/5/1 10/5/1 9/5/1
f 15/4/1 9/4/1 14/4/1
f 16/5/1 10/5/1 15/5/1
f 17/6/1 14/6/1 13/6/1
f 18/6/1 14/6/1 17/6/1
f 20/8/1 18/8/1 17/8/1
f 21/8/1 18/8/1 20/8/1
f 24/1/1 20/1/1 19/1/1
f 25/4/1 21/4/1 20/4/1
f 25/1/1 20/1/1 24/1/1
f 26/1/1 22/1/1 21/1/1
f 26/4/1 21/4/1 25/4/1
f 27/1/1 22/1/1 26/1/1
f 28/1/1 24/1/1 23/1/1
f 29/1/1 24/1/1 28/1/1
f 30/2/1 27/2/1 26/2/1
f 30/2/1 26/2/1 25/2/1
f 31/2/1 29/2/1 28/2/1
f 31/2/1 30/2/1 29/2/1
f 32/2/1 27/2/1 30/2/1
f 32/2/1 30/2/1 31/2/1
f 33/2/1 31/2/1 28/2/1
f 34/1/1 32/1/1 31/1/1
f 34/2/1 31/2/1 33/2/1
f 35/2/1 27/2/1 32/2/1
f 35/1/1 32/1/1 34/1/1
f 36/2/1 27/2/1 35/2/1
f 37/2/1 27/2/1 36/2/1
f 38/2/1 35/2/1 34/2/1
f 38/2/1 36/2/1 35/2/1
f 39/2/1 36/2/1 38/2/1
f 42/3/1 41/3/1 40/3/1
f 43/3/1 41/3/1 42/3/1
f 44/7/1 43/7/1 42/7/1
f 45/7/1 43/7/1 44/7/1
f 50/5/1 47/5/1 46/5/1
f 51/5/1 47/5/1 50/5/1
f 52/5/1 49/5/1 48/5/1
f 53/4/1 51/4/1 50/4/1
f 54/4/1 51/4/1 53/4/1
f 55/5/1 49/5/1 52/5/1
f 56/5/1 49/5/1 55/5/1
f 60/1/1 57/1/1 56/1/1
f 61/1/1 57/1/1 60/1/1
f 62/6/1 59/6/1 58/6/1
f 63/6/1 59/6/1 62/6/1
f 67/2/1 61/2/1 60/2/1
f 68/2/1 61/2/1 67/2/1
f 69/2/1 65/2/1 64/2/1
f 70/2/1 65/2/1 69/2/1
f 72/2/1 67/2/1 66/2/1
f 73/1/1 68/1/1 67/1/1
f 73/2/1 67/2/1 72/2/1
f 74/1/1 68/1/1 73/1/1
f 75/2/1 72/2/1 71/2/1
f 76/2/1 72/2/1 75/2/1
f 81/2/1 78/2/1 77/2/1
f 82/2/1 78/2/1 81/2/1
f 83/2/1 80/2/1 79/2/1
f 84/2/1 80/2/1 83/2/1
f 87/1/1 86/1/1 85/1/1
f 88/1/1 86/1/1 87/1/1
f 91/3/1 90/3/1 89/3/1
f 92/3/1 90/3/1 91/3/1
f 93/7/1 92/7/1 91/7/1
f 94/7/1 92/7/1 93/7/1
f 97/1/1 96/1/1 95/1/1
f 98/1/1 96/1/1 97/1/1
f 99/2/1 98/2/1 97/2/1
f 100/2/1 98/2/1 99/2/1
f 101/1/2 102/1/2 103/1/2
f 103/1/2 102/1/2 104/1/2
f 103/2/2 104/2/2 105/2/2
f 105/2/2 104/2/2 106/2/2
f 107/3/2 108/3/2 109/3/2
f 109/3/2 108/3/2 110/3/2
f 109/7/2 110/7/2 111/7/2
f 111/7/2 110/7/2 112/7/2
f 113/2/2 114/2/2 117/2/2
f 117/2/2 114/2/2 118/2/2
f 115/2/2 116/2/2 119/2/2
f 119/2/2 116/2/2 120/2/2
f 121/3/2 122/3/2 123/3/2
f 123/3/2 122/3/2 124/3/2
f 123/7/2 124/7/2 125/7/2
f 125/7/2 124/7/2 126/7/2
f 127/5/2 128/5/2 131/5/2
f 131/5/2 128/5/2 132/5/2
f 129/5/2 130/5/2 133/5/2
f 133/5/2 130/5/2 134/5/2
f 131/4/2 132/4/2 136/4/2
f 131/4/2 136/4/2 137/4/2
f 137/4/2 136/4/2 138/4/2
f 134/1/2 135/1/2 139/1/2
f 139/1/2 135/1/2 140/1/2
f 137/7/2 138/7/2 141/7/2
f 141/7/2 138/7/2 142/7/2
f 139/2/2 140/2/2 146/2/2
f 146/2/2 140/2/2 147/2/2
f 143/2/2 144/2/2 148/2/2
f 148/2/2 144/2/2 149/2/2
f 145/2/2 146/2/2 151/2/2
f 146/1/2 147/1/2 152/1/2
f 151/2/2 146/2/2 152/2/2
f 152/1/2 147/1/2 153/1/2
f 150/2/2 151/2/2 154/2/2
f 154/2/2 151/2/2 155/2/2
f 156/4/2 157/4/2 162/4/2
f 157/5/2 158/5/2 163/5/2
f 162/4/2 157/4/2 163/4/2
f 163/5/2 158/5/2 164/5/2
f 159/5/2 160/5/2 165/5/2
f 160/4/2 161/4/2 166/4/2
f 165/5/2 160/5/2 166/5/2
f 166/4/2 161/4/2 167/4/2
f 164/7/2 165/7/2 168/7/2
f 168/7/2 165/7/2 169/7/2
f 168/8/2 169/8/2 171/8/2
f 169/1/2 170/1/2 172/1/2
f 171/8/2 169/8/2 172/8/2
f 171/4/2 172/4/2 175/4/2
f 172/1/2 170/1/2 176/1/2
f 175/4/2 172/4/2 176/4/2
f 176/1/2 170/1/2 177/1/2
f 173/1/2 174/1/2 178/1/2
f 178/1/2 174/1/2 179/1/2
f 175/1/2 176/1/2 180/1/2
f 176/2/2 177/2/2 181/2/2
f 180/1/2 176/1/2 181/1/2
f 178/2/2 179/2/2 182/2/2
f 179/2/2 180/2/2 182/2/2
f 180/2/2 181/2/2 182/2/2
f 181/2/2 177/2/2 183/2/2
f 182/2/2 181/2/2 183/2/2
f 178/2/2 182/2/2 184/2/2
f 184/2/2 182/2/2 185/2/2
f 182/1/2 183/1/2 186/1/2
f 185/2/2 182/2/2 186/2/2
f 183/2/2 177/2/2 187/2/2
f 186/1/2 183/1/2 187/1/2
f 187/2/2 177/2/2 188/2/2
f 185/2/2 186/2/2 189/2/2
f 186/2/2 187/2/2 189/2/2
f 189/2/2 187/2/2 190/2/2
f 191/7/2 192/7/2 193/7/2
f 193/7/2 192/7/2 194/7/2
f 200/5/3 196/5/3 195/5/3
f 201/5/3 196/5/3 200/5/3
f 202/1/3 198/1/3 197/1/3
f 203/2/3 199/2/3 198/2/3
f 203/1/3 198/1/3 202/1/3
f 204/2/3 199/2/3 203/2/3
f 205/2/3 199/2/3 204/2/3
f 207/4/3 201/4/3 200/4/3
f 208/4/3 201/4/3 207/4/3
f 209/1/3 205/1/3 204/1/3
f 210/2/3 206/2/3 205/2/3
f 210/1/3 205/1/3 209/1/3
f 211/5/3 208/5/3 207/5/3
f 212/5/3 208/5/3 211/5/3
f 213/2/3 210/2/3 209/2/3
f 214/2/3 206/2/3 210/2/3
f 214/2/3 210/2/3 213/2/3
f 215/4/3 212/4/3 211/4/3
f 216/4/3 212/4/3 215/4/3
f 217/5/3 216/5/3 215/5/3
f 218/5/3 216/5/3 217/5/3
f 221/1/3 214/1/3 213/1/3
f 222/2/3 206/2/3 214/2/3
f 222/1/3 214/1/3 221/1/3
f 223/2/3 206/2/3 222/2/3
f 224/4/3 218/4/3 217/4/3
f 225/4/3 218/4/3 224/4/3
f 226/1/3 220/1/3 219/1/3
f 227/2/3 221/2/3 220/2/3
f 227/1/3 220/1/3 226/1/3
f 227/2/3 222/2/3 221/2/3
f 228/2/3 222/2/3 227/2/3
f 235/1/3 230/1/3 229/1/3
f 236/1/3 230/1/3 235/1/3
f 239/2/3 232/2/3 231/2/3
f 240/2/3 232/2/3 239/2/3
f 241/5/3 234/5/3 233/5/3
f 242/4/3 235/4/3 234/4/3
f 242/5/3 234/5/3 241/5/3
f 242/4/3 236/4/3 235/4/3
f 243/4/3 236/4/3 242/4/3
f 244/6/3 237/6/3 236/6/3
f 244/4/3 236/4/3 243/4/3
f 245/10/3 238/10/3 237/10/3
f 245/6/3 237/6/3 244/6/3
f 246/10/3 238/10/3 245/10/3
f 249/4/3 243/4/3 242/4/3
f 249/4/3 242/4/3 241/4/3
f 250/6/3 246/6/3 245/6/3
f 251/4/3 243/4/3 249/4/3
f 252/4/3 243/4/3 251/4/3
f 253/8/3 244/8/3 243/8/3
f 253/4/3 243/4/3 252/4/3
f 254/7/3 245/7/3 244/7/3
f 254/8/3 244/8/3 253/8/3
f 255/6/3 250/6/3 245/6/3
f 255/7/3 245/7/3 254/7/3
f 256/6/3 250/6/3 255/6/3
f 257/2/3 248/2/3 247/2/3
f 258/2/3 248/2/3 257/2/3
f 259/5/3 252/5/3 251/5/3
f 260/4/3 253/4/3 252/4/3
f 260/5/3 252/5/3 259/5/3
f 260/4/3 254/4/3 253/4/3
f 261/7/3 255/7/3 254/7/3
f 261/4/3 254/4/3 260/4/3
f 262/10/3 256/10/3 255/10/3
f 262/7/3 255/7/3 261/7/3
f 263/10/3 256/10/3 262/10/3
f 266/2/3 265/2/3 264/2/3
f 267/2/3 265/2/3 266/2/3
f 270/7/3 269/7/3 268/7/3
f 271/7/3 269/7/3 270/7/3
f 279/6/3 272/6/3 271/6/3
f 280/8/3 273/8/3 272/8/3
f 280/6/3 272/6/3 279/6/3
f 281/8/3 273/8/3 280/8/3
f 282/2/3 275/2/3 274/2/3
f 283/2/3 275/2/3 282/2/3
f 286/3/3 277/3/3 276/3/3
f 287/7/3 278/7/3 277/7/3
f 287/3/3 277/3/3 286/3/3
f 288/7/3 278/7/3 287/7/3
f 289/2/3 285/2/3 284/2/3
f 290/2/3 285/2/3 289/2/3
f 296/3/3 292/3/3 291/3/3
f 297/7/3 293/7/3 292/7/3
f 297/3/3 292/3/3 296/3/3
f 298/7/3 293/7/3 297/7/3
f 304/2/3 295/2/3 294/2/3
f 305/2/3 295/2/3 304/2/3
f 307/7/3 300/7/3 299/7/3
f 308/8/3 301/8/3 300/8/3
f 308/7/3 300/7/3 307/7/3
f 309/4/3 302/4/3 301/4/3
f 309/8/3 301/8/3 308/8/3
f 310/1/3 303/1/3 302/1/3
f 310/4/3 302/4/3 309/4/3
f 311/1/3 303/1/3 310/1/3
f 312/7/3 307/7/3 306/7/3
f 313/7/3 307/7/3 312/7/3
f 314/1/4 315/1/4 316/1/4
f 316/1/4 315/1/4 317/1/4
f 318/1/4 319/1/4 320/1/4
f 320/1/4 319/1/4 321/1/4
f 322/7/4 323/7/4 324/7/4
f 324/7/4 323/7/4 325/7/4
f 325/6/4 326/6/4 333/6/4
f 326/8/4 327/8/4 334/8/4
f 333/6/4 326/6/4 334/6/4
f 334/8/4 327/8/4 335/8/4
f 328/2/4 329/2/4 336/2/4
f 336/2/4 329/2/4 337/2/4
f 330/3/4 331/3/4 339/3/4
f 331/7/4 332/7/4 340/7/4
f 339/3/4 331/3/4 340/3/4
f 340/7/4 332/7/4 341/7/4
f 337/2/4 338/2/4 342/2/4
f 342/2/4 338/2/4 343/2/4
f 344/3/4 345/3/4 349/3/4
f 345/7/4 346/7/4 350/7/4
f 349/3/4 345/3/4 350/3/4
f 350/7/4 346/7/4 351/7/4
f 347/2/4 348/2/4 355/2/4
f 355/2/4 348/2/4 356/2/4
f 352/7/4 353/7/4 358/7/4
f 358/7/4 353/7/4 359/7/4
f 354/2/4 355/2/4 360/2/4
f 360/2/4 355/2/4 361/2/4
f 357/7/4 358/7/4 362/7/4
f 362/7/4 358/7/4 363/7/4
f 364/1/4 365/1/4 368/1/4
f 365/2/4 366/2/4 369/2/4
f 368/1/4 365/1/4 369/1/4
f 369/2/4 366/2/4 370/2/4
f 367/5/4 368/5/4 371/5/4
f 371/5/4 368/5/4 372/5/4
f 372/5/4 368/5/4 373/5/4
f 371/5/4 372/5/4 376/5/4
f 372/4/4 373/4/4 377/4/4
f 376/5/4 372/5/4 377/5/4
f 377/4/4 373/4/4 378/4/4
f 376/5/4 377/5/4 379/5/4
f 374/2/4 375/2/4 380/2/4
f 380/2/4 375/2/4 381/2/4
f 379/5/4 377/5/4 382/5/4
f 382/5/4 377/5/4 383/5/4
f 383/1/4 384/1/4 386/1/4
f 384/2/4 385/2/4 387/2/4
f 386/1/4 384/1/4 387/1/4
f 387/2/4 385/2/4 388/2/4
f 389/5/4 390/5/4 391/5/4
f 391/5/4 390/5/4 392/5/4
f 391/4/4 392/4/4 397/4/4
f 397/4/4 392/4/4 398/4/4
f 394/2/4 395/2/4 399/2/4
f 399/2/4 395/2/4 400/2/4
f 395/1/4 396/1/4 401/1/4
f 400/2/4 395/2/4 401/2/4
f 401/1/4 396/1/4 402/1/4
f 397/5/4 398/5/4 403/5/4
f 403/5/4 398/5/4 404/5/4
f 393/1/4 394/1/4 406/1/4
f 394/2/4 399/2/4 407/2/4
f 406/1/4 394/1/4 407/1/4
f 399/1/4 400/1/4 408/1/4
f 407/2/4 399/2/4 408/2/4
f 400/2/4 401/2/4 409/2/4
f 408/1/4 400/1/4 409/1/4
f 401/2/4 402/2/4 409/2/4
f 403/4/4 404/4/4 410/4/4
f 410/4/4 404/4/4 411/4/4
f 406/2/4 407/2/4 412/2/4
f 405/1/4 406/1/4 412/1/4
f 407/2/4 408/2/4 412/2/4
f 408/2/4 409/2/4 412/2/4
f 412/2/4 409/2/4 413/2/4
f 409/2/4 402/2/4 414/2/4
f 413/2/4 409/2/4 414/2/4
f 414/2/4 402/2/4 415/2/4
f 410/5/4 411/5/4 416/5/4
f 416/5/4 411/5/4 417/5/4
f 412/1/4 413/1/4 418/1/4
f 405/1/4 412/1/4 418/1/4
f 413/2/4 414/2/4 419/2/4
f 418/1/4 413/1/4 419/1/4
f 414/1/4 415/1/4 420/1/4
f 419/2/4 414/2/4 420/2/4
f 420/1/4 415/1/4 421/1/4
f 416/4/4 417/4/4 422/4/4
f 422/4/4 417/4/4 423/4/4
f 428/3/5 425/3/5 424/3/5
f 429/3/5 425/3/5 428/3/5
f 430/3/5 427/3/5 426/3/5
f 431/3/5 427/3/5 430/3/5
f 439/5/5 433/5/5 432/5/5
f 440/4/5 434/4/5 433/4/5
f 440/5/5 433/5/5 439/5/5
f 441/4/5 438/4/5 437/4/5
f 441/5/5 437/5/5 436/5/5
f 442/4/5 438/4/5 441/4/5
f 444/4/5 440/4/5 439/4/5
f 445/4/5 434/4/5 440/4/5
f 445/4/5 440/4/5 444/4/5
f 446/5/5 435/5/5 434/5/5
f 446/4/5 434/4/5 445/4/5
f 447/4/5 436/4/5 435/4/5
f 447/5/5 441/5/5 436/5/5
f 447/5/5 442/5/5 441/5/5
f 448/5/5 442/5/5 447/5/5
f 449/5/5 442/5/5 448/5/5
f 451/7/5 444/7/5 443/7/5
f 452/5/5 445/5/5 444/5/5
f 452/7/5 444/7/5 451/7/5
f 453/5/5 445/5/5 452/5/5
f 454/5/5 435/5/5 446/5/5
f 455/4/5 447/4/5 435/4/5
f 456/4/5 449/4/5 448/4/5
f 457/7/5 450/7/5 449/7/5
f 457/4/5 449/4/5 456/4/5
f 458/7/5 450/7/5 457/7/5
f 459/4/5 453/4/5 452/4/5
f 459/4/5 454/4/5 453/4/5
f 460/4/5 454/4/5 459/4/5
f 461/5/5 456/5/5 455/5/5
f 461/5/5 457/5/5 456/5/5
f 462/5/5 457/5/5 461/5/5
f 463/5/5 460/5/5 459/5/5
f 464/4/5 454/4/5 460/4/5
f 464/5/5 460/5/5 463/5/5
f 465/5/5 435/5/5 454/5/5
f 465/4/5 454/4/5 464/4/5
f 466/4/5 455/4/5 435/4/5
f 466/5/5 435/5/5 465/5/5
f 467/5/5 461/5/5 455/5/5
f 467/4/5 455/4/5 466/4/5
f 468/4/5 462/4/5 461/4/5
f 468/5/5 461/5/5 467/5/5
f 469/4/5 462/4/5 468/4/5
f 473/1/5 471/1/5 470/1/5
f 474/1/5 471/1/5 473/1/5
f 475/1/5 473/1/5 472/1/5
f 476/1/5 473/1/5 475/1/5
f 479/1/5 478/1/5 477/1/5
f 480/1/5 478/1/5 479/1/5
f 483/1/5 482/1/5 481/1/5
f 484/1/5 482/1/5 483/1/5
f 487/1/5 486/1/5 485/1/5
f 487/1/5 485/1/5 484/1/5
f 488/1/5 486/1/5 487/1/5
f 493/1/5 490/1/5 489/1/5
f 494/1/5 490/1/5 493/1/5
f 495/1/5 492/1/5 491/1/5
f 496/1/5 492/1/5 495/1/5
f 501/2/5 498/2/5 497/2/5
f 502/2/5 498/2/5 501/2/5
f 503/2/5 500/2/5 499/2/5
f 504/2/5 500/2/5 503/2/5
f 509/1/5 506/1/5 505/1/5
f 510/2/5 507/2/5 506/2/5
f 510/1/5 506/1/5 509/1/5
f 511/1/5 508/1/5 507/1/5
f 511/2/5 507/2/5 510/2/5
f 512/1/5 508/1/5 511/1/5
f 513/1/5 508/1/5 512/1/5
f 514/5/6 515/5/6 521/5/6
f 515/4/6 516/4/6 522/4/6
f 521/5/6 515/5/6 522/5/6
f 516/5/6 517/5/6 523/5/6
f 522/4/6 516/4/6 523/4/6
f 517/4/6 518/4/6 524/4/6
f 523/5/6 517/5/6 524/5/6
f 518/5/6 519/5/6 525/5/6
f 524/4/6 518/4/6 525/4/6
f 519/4/6 520/4/6 526/4/6
f 525/5/6 519/5/6 526/5/6
f 526/4/6 520/4/6 527/4/6
f 521/4/6 522/4/6 529/4/6
f 529/4/6 522/4/6 530/4/6
f 526/5/6 527/5/6 531/5/6
f 531/5/6 527/5/6 532/5/6
f 528/7/6 529/7/6 534/7/6
f 534/7/6 529/7/6 535/7/6
f 532/7/6 533/7/6 538/7/6
f 538/7/6 533/7/6 539/7/6
f 535/4/6 536/4/6 540/4/6
f 540/4/6 536/4/6 541/4/6
f 537/5/6 538/5/6 545/5/6
f 545/5/6 538/5/6 546/5/6
f 540/5/6 541/5/6 547/5/6
f 541/4/6 542/4/6 548/4/6
f 547/5/6 541/5/6 548/5/6
f 542/5/6 543/5/6 549/5/6
f 548/4/6 542/4/6 549/4/6
f 543/4/6 544/4/6 550/4/6
f 549/5/6 543/5/6 550/5/6
f 544/5/6 545/5/6 551/5/6
f 550/4/6 544/4/6 551/4/6
f 545/4/6 546/4/6 552/4/6
f 551/5/6 545/5/6 552/5/6
f 552/4/6 546/4/6 553/4/6
f 554/1/6 555/1/6 556/1/6
f 556/1/6 555/1/6 557/1/6
f 558/2/6 559/2/6 562/2/6
f 562/2/6 559/2/6 563/2/6
f 560/2/6 561/2/6 564/2/6
f 564/2/6 561/2/6 565/2/6
f 566/2/6 567/2/6 570/2/6
f 570/2/6 567/2/6 571/2/6
f 568/2/6 569/2/6 572/2/6
f 572/2/6 569/2/6 573/2/6
f 574/2/6 575/2/6 577/2/6
f 577/2/6 575/2/6 578/2/6
f 578/2/6 575/2/6 579/2/6
f 579/2/6 575/2/6 580/2/6
f 576/2/6 577/2/6 582/2/6
f 577/2/6 578/2/6 582/2/6
f 582/2/6 578/2/6 583/2/6
f 580/2/6 581/2/6 584/2/6
f 579/2/6 580/2/6 584/2/6
f 584/2/6 581/2/6 585/2/6
f 576/2/6 582/2/6 586/2/6
f 586/2/6 582/2/6 587/2/6
f 585/2/6 581/2/6 590/2/6
f 590/2/6 581/2/6 591/2/6
f 587/2/6 588/2/6 592/2/6
f 592/2/6 588/2/6 593/2/6
f 589/2/6 590/2/6 594/2/6
f 594/2/6 590/2/6 595/2/6
f 592/1/6 593/1/6 596/1/6
f 593/2/6 594/2/6 597/2/6
f 596/1/6 593/1/6 597/1/6
f 594/1/6 595/1/6 598/1/6
f 597/2/6 594/2/6 598/2/6
f 598/1/6 595/1/6 599/1/6
f 600/2/6 601/2/6 603/2/6
f 603/2/6 601/2/6 604/2/6
f 604/2/6 601/2/6 605/2/6
f 602/2/6 603/2/6 607/2/6
f 603/1/6 604/1/6 608/1/6
f 607/2/6 603/2/6 608/2/6
f 605/2/6 606/2/6 609/2/6
f 608/1/6 604/1/6 609/1/6
f 604/2/6 605/2/6 609/2/6
f 609/2/6 606/2/6 610/2/6
f 610/2/6 606/2/6 611/2/6
f 608/2/6 609/2/6 612/2/6
f 609/2/6 610/2/6 612/2/6
f 612/2/6 610/2/6 613/2/6
