# MagicaVoxel @ Ephtracy

# group
o 

# material
mtllib chr_BlueSoldier.mtl
usemtl palette

# normals
vn -1 0 0
vn 1 0 0
vn 0 0 1
vn 0 0 -1
vn 0 -1 0
vn 0 1 0

# texcoords
vt 0.162109 0.5
vt 0.306641 0.5
vt 0.310547 0.5
vt 0.376953 0.5
vt 0.380859 0.5
vt 0.384766 0.5
vt 0.400391 0.5
vt 0.404297 0.5
vt 0.974609 0.5
vt 0.978516 0.5
vt 0.982422 0.5
vt 0.990234 0.5
vt 0.994141 0.5

# verts
v -0.7 0.7 -2.98023e-008
v -0.7 0.7 -0.1
v -0.7 1.1 -2.98023e-008
v -0.7 1.1 -0.1
v -0.5 0 -2.98023e-008
v -0.5 0 -0.1
v -0.5 0.3 -2.98023e-008
v -0.5 0.3 -0.1
v -0.5 0.4 -2.98023e-008
v -0.5 0.4 -0.1
v -0.5 0.9 -2.98023e-008
v -0.5 0.9 -0.1
v -0.5 1 -2.98023e-008
v -0.5 1 -0.1
v -0.5 1.4 -2.98023e-008
v -0.5 1.4 -0.1
v -0.3 0.5 -2.98023e-008
v -0.3 0.5 -0.1
v -0.3 0.6 0.2
v -0.3 0.6 -2.98023e-008
v -0.3 0.6 -0.1
v -0.3 0.6 -0.3
v -0.3 0.7 0.3
v -0.3 0.7 0.2
v -0.3 0.7 -0.3
v -0.3 1 -0.3
v -0.3 1 -0.4
v -0.3 1.1 0.3
v -0.3 1.1 0.2
v -0.3 1.1 0.1
v -0.3 1.2 0.2
v -0.3 1.2 0.1
v -0.3 1.2 -2.98023e-008
v -0.3 1.2 -0.2
v -0.3 1.2 -0.4
v -0.3 1.3 -2.98023e-008
v -0.3 1.3 -0.2
v -0.2 0 -2.98023e-008
v -0.2 0 -0.1
v -0.2 0.1 -2.98023e-008
v -0.2 0.1 -0.1
v -0.2 0.2 -2.98023e-008
v -0.2 0.2 -0.1
v -0.2 0.3 0.1
v -0.2 0.3 -2.98023e-008
v -0.2 0.3 -0.1
v -0.2 0.3 -0.2
v -0.2 0.4 0.1
v -0.2 0.4 -0.1
v -0.2 0.5 -2.98023e-008
v -0.2 0.5 -0.1
v -0.2 0.5 -0.2
v -0.2 0.6 0.1
v -0.2 0.6 -2.98023e-008
v -0.2 0.6 -0.1
v -0.2 0.6 -0.2
v -0.2 0.8 -0.3
v -0.2 0.8 -0.4
v -0.2 1 -0.3
v -0.2 1 -0.4
v -0.2 1.1 0.3
v -0.2 1.1 0.2
v -0.2 1.2 0.3
v -0.2 1.2 0.2
v -0.2 1.2 0.1
v -0.2 1.2 -2.98023e-008
v -0.2 1.2 -0.2
v -0.2 1.2 -0.3
v -0.2 1.3 0.2
v -0.2 1.3 -2.98023e-008
v -0.2 1.3 -0.2
v -0.2 1.3 -0.3
v 0.1 0 -2.98023e-008
v 0.1 0 -0.1
v 0.1 0.1 -2.98023e-008
v 0.1 0.1 -0.1
v 0.1 0.2 -2.98023e-008
v 0.1 0.2 -0.1
v 0.1 0.3 -2.98023e-008
v 0.1 0.3 -0.1
v 0.1 0.6 0.2
v 0.1 0.6 0.1
v 0.1 0.7 0.3
v 0.1 0.7 0.2
v 0.1 0.7 0.1
v 0.1 0.8 0.3
v 0.1 0.8 0.2
v 0.2 0.7 0.2
v 0.2 0.7 0.1
v 0.2 0.8 0.3
v 0.2 0.8 0.2
v 0.2 0.8 0.1
v 0.2 0.9 0.3
v 0.2 0.9 0.2
v 0.2 0.9 0.1
v 0.2 1 0.2
v 0.2 1 0.1
v -0.6 0.7 -2.98023e-008
v -0.6 0.7 -0.1
v -0.6 0.9 -2.98023e-008
v -0.6 0.9 -0.1
v -0.6 1 -2.98023e-008
v -0.6 1 -0.1
v -0.6 1.1 -2.98023e-008
v -0.6 1.1 -0.1
v -0.4 0 -2.98023e-008
v -0.4 0 -0.1
v -0.4 0.3 -2.98023e-008
v -0.4 0.3 -0.1
v -0.4 0.4 -2.98023e-008
v -0.4 0.4 -0.1
v -0.4 0.5 -2.98023e-008
v -0.4 0.5 -0.1
v -0.4 0.9 -2.98023e-008
v -0.4 0.9 -0.1
v -0.4 1 -2.98023e-008
v -0.4 1 -0.1
v -0.4 1.4 -2.98023e-008
v -0.4 1.4 -0.1
v -0.3 0.4 -2.98023e-008
v -0.3 0.4 -0.1
v -0.3 0.5 -2.98023e-008
v -0.3 0.5 -0.1
v -0.2 0.7 0.2
v -0.2 0.7 0.1
v -0.2 0.8 0.3
v -0.2 0.8 0.2
v -0.2 0.8 0.1
v -0.2 0.9 0.3
v -0.2 0.9 0.2
v -0.2 0.9 0.1
v -0.2 1 0.2
v -0.2 1 0.1
v -0.1 0 -2.98023e-008
v -0.1 0 -0.1
v -0.1 0.1 -2.98023e-008
v -0.1 0.1 -0.1
v -0.1 0.2 -2.98023e-008
v -0.1 0.2 -0.1
v -0.1 0.3 -2.98023e-008
v -0.1 0.3 -0.1
v -0.1 0.6 0.2
v -0.1 0.6 0.1
v -0.1 0.7 0.3
v -0.1 0.7 0.2
v -0.1 0.7 0.1
v -0.1 0.8 0.3
v -0.1 0.8 0.2
v 0.2 0 -2.98023e-008
v 0.2 0 -0.1
v 0.2 0.1 -2.98023e-008
v 0.2 0.1 -0.1
v 0.2 0.2 -2.98023e-008
v 0.2 0.2 -0.1
v 0.2 0.3 0.1
v 0.2 0.3 -2.98023e-008
v 0.2 0.3 -0.1
v 0.2 0.3 -0.2
v 0.2 0.4 0.1
v 0.2 0.4 -2.98023e-008
v 0.2 0.4 -0.1
v 0.2 0.5 -0.1
v 0.2 0.5 -0.2
v 0.2 0.6 0.1
v 0.2 0.6 -2.98023e-008
v 0.2 0.6 -0.1
v 0.2 0.6 -0.2
v 0.2 0.8 -0.3
v 0.2 0.8 -0.4
v 0.2 1 -0.3
v 0.2 1 -0.4
v 0.2 1.1 0.3
v 0.2 1.1 0.2
v 0.2 1.2 0.3
v 0.2 1.2 0.2
v 0.2 1.2 0.1
v 0.2 1.2 -2.98023e-008
v 0.2 1.2 -0.2
v 0.2 1.2 -0.3
v 0.2 1.3 0.2
v 0.2 1.3 -2.98023e-008
v 0.2 1.3 -0.2
v 0.2 1.3 -0.3
v 0.3 0.3 -2.98023e-008
v 0.3 0.3 -0.1
v 0.3 0.4 -2.98023e-008
v 0.3 0.4 -0.1
v 0.3 0.6 0.2
v 0.3 0.6 0.1
v 0.3 0.6 -2.98023e-008
v 0.3 0.6 -0.1
v 0.3 0.6 -0.2
v 0.3 0.6 -0.3
v 0.3 0.7 0.3
v 0.3 0.7 0.2
v 0.3 0.7 0.1
v 0.3 0.7 -2.98023e-008
v 0.3 0.7 -0.1
v 0.3 0.7 -0.2
v 0.3 0.7 -0.3
v 0.3 1 -0.3
v 0.3 1 -0.4
v 0.3 1.1 0.3
v 0.3 1.1 0.2
v 0.3 1.1 0.1
v 0.3 1.2 0.2
v 0.3 1.2 0.1
v 0.3 1.2 -2.98023e-008
v 0.3 1.2 -0.2
v 0.3 1.2 -0.4
v 0.3 1.3 -2.98023e-008
v 0.3 1.3 -0.2
v 0.4 0.6 0.1
v 0.4 0.6 -2.98023e-008
v 0.4 0.6 -0.1
v 0.4 0.6 -0.2
v 0.4 0.7 0.1
v 0.4 0.7 -2.98023e-008
v 0.4 0.7 -0.1
v 0.4 0.7 -0.2
v -0.3 0.7 0.3
v -0.3 1.1 0.3
v -0.2 0.8 0.3
v -0.2 0.9 0.3
v -0.2 1.1 0.3
v -0.2 1.2 0.3
v -0.1 0.7 0.3
v -0.1 0.8 0.3
v 0.1 0.7 0.3
v 0.1 0.8 0.3
v 0.2 0.8 0.3
v 0.2 0.9 0.3
v 0.2 1.1 0.3
v 0.2 1.2 0.3
v 0.3 0.7 0.3
v 0.3 1.1 0.3
v -0.3 0.6 0.2
v -0.3 0.7 0.2
v -0.3 1.1 0.2
v -0.3 1.2 0.2
v -0.2 1.1 0.2
v -0.2 1.2 0.2
v -0.2 1.3 0.2
v -0.1 0.6 0.2
v -0.1 0.7 0.2
v 0.1 0.6 0.2
v 0.1 0.7 0.2
v 0.2 1.1 0.2
v 0.2 1.2 0.2
v 0.2 1.3 0.2
v 0.3 0.6 0.2
v 0.3 0.7 0.2
v 0.3 1.1 0.2
v 0.3 1.2 0.2
v -0.2 0.3 0.1
v -0.2 0.4 0.1
v -0.2 0.6 0.1
v -0.2 0.7 0.1
v -0.2 0.8 0.1
v -0.2 0.9 0.1
v -0.2 1 0.1
v -0.1 0.3 0.1
v -0.1 0.4 0.1
v -0.1 0.5 0.1
v -0.1 0.6 0.1
v -0.1 0.7 0.1
v -0.1 0.8 0.1
v -0.1 0.9 0.1
v 0.1 0.3 0.1
v 0.1 0.4 0.1
v 0.1 0.5 0.1
v 0.1 0.6 0.1
v 0.1 0.7 0.1
v 0.1 0.8 0.1
v 0.1 0.9 0.1
v 0.1 1 0.1
v 0.2 0.3 0.1
v 0.2 0.4 0.1
v 0.2 0.6 0.1
v 0.2 0.7 0.1
v 0.2 0.8 0.1
v 0.2 0.9 0.1
v 0.2 1 0.1
v 0.3 0.6 0.1
v 0.3 0.7 0.1
v 0.4 0.6 0.1
v 0.4 0.7 0.1
v -0.7 0.7 -2.98023e-008
v -0.7 1.1 -2.98023e-008
v -0.6 0.7 -2.98023e-008
v -0.6 0.9 -2.98023e-008
v -0.6 1 -2.98023e-008
v -0.6 1.1 -2.98023e-008
v -0.5 0 -2.98023e-008
v -0.5 0.3 -2.98023e-008
v -0.5 0.4 -2.98023e-008
v -0.5 0.9 -2.98023e-008
v -0.5 1 -2.98023e-008
v -0.5 1.4 -2.98023e-008
v -0.4 0 -2.98023e-008
v -0.4 0.3 -2.98023e-008
v -0.4 0.4 -2.98023e-008
v -0.4 0.5 -2.98023e-008
v -0.4 0.9 -2.98023e-008
v -0.4 1 -2.98023e-008
v -0.4 1.4 -2.98023e-008
v -0.3 0.4 -2.98023e-008
v -0.3 0.5 -2.98023e-008
v -0.3 0.6 -2.98023e-008
v -0.3 1.2 -2.98023e-008
v -0.3 1.3 -2.98023e-008
v -0.2 0 -2.98023e-008
v -0.2 0.1 -2.98023e-008
v -0.2 0.2 -2.98023e-008
v -0.2 0.3 -2.98023e-008
v -0.2 0.5 -2.98023e-008
v -0.2 0.6 -2.98023e-008
v -0.2 1.2 -2.98023e-008
v -0.2 1.3 -2.98023e-008
v -0.1 0 -2.98023e-008
v -0.1 0.1 -2.98023e-008
v -0.1 0.2 -2.98023e-008
v -0.1 0.3 -2.98023e-008
v 0.1 0 -2.98023e-008
v 0.1 0.1 -2.98023e-008
v 0.1 0.2 -2.98023e-008
v 0.1 0.3 -2.98023e-008
v 0.2 0 -2.98023e-008
v 0.2 0.1 -2.98023e-008
v 0.2 0.2 -2.98023e-008
v 0.2 0.3 -2.98023e-008
v 0.2 0.4 -2.98023e-008
v 0.2 0.6 -2.98023e-008
v 0.2 1.2 -2.98023e-008
v 0.2 1.3 -2.98023e-008
v 0.3 0.3 -2.98023e-008
v 0.3 0.4 -2.98023e-008
v 0.3 0.6 -2.98023e-008
v 0.3 1.2 -2.98023e-008
v 0.3 1.3 -2.98023e-008
v -0.2 0.7 0.2
v -0.2 0.8 0.2
v -0.2 0.9 0.2
v -0.2 1 0.2
v -0.1 0.7 0.2
v -0.1 0.8 0.2
v 0.1 0.7 0.2
v 0.1 0.8 0.2
v 0.2 0.7 0.2
v 0.2 0.8 0.2
v 0.2 0.9 0.2
v 0.2 1 0.2
v -0.7 0.7 -0.1
v -0.7 1.1 -0.1
v -0.6 0.7 -0.1
v -0.6 0.9 -0.1
v -0.6 1 -0.1
v -0.6 1.1 -0.1
v -0.5 0 -0.1
v -0.5 0.3 -0.1
v -0.5 0.4 -0.1
v -0.5 0.9 -0.1
v -0.5 1 -0.1
v -0.5 1.4 -0.1
v -0.4 0 -0.1
v -0.4 0.3 -0.1
v -0.4 0.4 -0.1
v -0.4 0.5 -0.1
v -0.4 0.9 -0.1
v -0.4 1 -0.1
v -0.4 1.4 -0.1
v -0.3 0.4 -0.1
v -0.3 0.5 -0.1
v -0.3 0.6 -0.1
v -0.2 0 -0.1
v -0.2 0.1 -0.1
v -0.2 0.2 -0.1
v -0.2 0.3 -0.1
v -0.2 0.5 -0.1
v -0.2 0.6 -0.1
v -0.1 0 -0.1
v -0.1 0.1 -0.1
v -0.1 0.2 -0.1
v -0.1 0.3 -0.1
v 0.1 0 -0.1
v 0.1 0.1 -0.1
v 0.1 0.2 -0.1
v 0.1 0.3 -0.1
v 0.2 0 -0.1
v 0.2 0.1 -0.1
v 0.2 0.2 -0.1
v 0.2 0.3 -0.1
v 0.2 0.4 -0.1
v 0.2 0.5 -0.1
v 0.2 0.6 -0.1
v 0.3 0.3 -0.1
v 0.3 0.4 -0.1
v 0.3 0.6 -0.1
v -0.3 1.2 -0.2
v -0.3 1.3 -0.2
v -0.2 0.3 -0.2
v -0.2 0.5 -0.2
v -0.2 0.6 -0.2
v -0.2 1.2 -0.2
v -0.2 1.3 -0.2
v -0.1 0.4 -0.2
v -0.1 0.5 -0.2
v 0.1 0.4 -0.2
v 0.1 0.5 -0.2
v 0.2 0.3 -0.2
v 0.2 0.5 -0.2
v 0.2 0.6 -0.2
v 0.2 1.2 -0.2
v 0.2 1.3 -0.2
v 0.3 0.6 -0.2
v 0.3 0.7 -0.2
v 0.3 1.2 -0.2
v 0.3 1.3 -0.2
v 0.4 0.6 -0.2
v 0.4 0.7 -0.2
v -0.3 0.6 -0.3
v -0.3 0.7 -0.3
v -0.3 1 -0.3
v -0.2 0.8 -0.3
v -0.2 1 -0.3
v -0.2 1.2 -0.3
v -0.2 1.3 -0.3
v 0.2 0.8 -0.3
v 0.2 1 -0.3
v 0.2 1.2 -0.3
v 0.2 1.3 -0.3
v 0.3 0.6 -0.3
v 0.3 0.7 -0.3
v 0.3 1 -0.3
v -0.3 1 -0.4
v -0.3 1.2 -0.4
v -0.2 0.8 -0.4
v -0.2 1 -0.4
v 0.2 0.8 -0.4
v 0.2 1 -0.4
v 0.3 1 -0.4
v 0.3 1.2 -0.4
v -0.5 0 -2.98023e-008
v -0.4 0 -2.98023e-008
v -0.2 0 -2.98023e-008
v -0.1 0 -2.98023e-008
v 0.1 0 -2.98023e-008
v 0.2 0 -2.98023e-008
v -0.5 0 -0.1
v -0.4 0 -0.1
v -0.2 0 -0.1
v -0.1 0 -0.1
v 0.1 0 -0.1
v 0.2 0 -0.1
v -0.2 0.3 0.1
v -0.1 0.3 0.1
v 0.1 0.3 0.1
v 0.2 0.3 0.1
v -0.2 0.3 -2.98023e-008
v -0.1 0.3 -2.98023e-008
v 0.1 0.3 -2.98023e-008
v 0.2 0.3 -2.98023e-008
v 0.3 0.3 -2.98023e-008
v -0.2 0.3 -0.1
v -0.1 0.3 -0.1
v 0.1 0.3 -0.1
v 0.2 0.3 -0.1
v 0.3 0.3 -0.1
v -0.2 0.3 -0.2
v 0.2 0.3 -0.2
v -0.4 0.4 -2.98023e-008
v -0.3 0.4 -2.98023e-008
v -0.4 0.4 -0.1
v -0.3 0.4 -0.1
v -0.3 0.5 -2.98023e-008
v -0.2 0.5 -2.98023e-008
v -0.3 0.5 -0.1
v -0.2 0.5 -0.1
v -0.3 0.6 0.2
v -0.1 0.6 0.2
v 0.1 0.6 0.2
v 0.3 0.6 0.2
v -0.2 0.6 0.1
v -0.1 0.6 0.1
v 0.1 0.6 0.1
v 0.2 0.6 0.1
v 0.3 0.6 0.1
v 0.4 0.6 0.1
v -0.3 0.6 -2.98023e-008
v -0.2 0.6 -2.98023e-008
v 0.2 0.6 -2.98023e-008
v 0.3 0.6 -2.98023e-008
v 0.4 0.6 -2.98023e-008
v -0.3 0.6 -0.1
v -0.2 0.6 -0.1
v 0.2 0.6 -0.1
v 0.3 0.6 -0.1
v 0.4 0.6 -0.1
v -0.2 0.6 -0.2
v 0.2 0.6 -0.2
v 0.3 0.6 -0.2
v 0.4 0.6 -0.2
v -0.3 0.6 -0.3
v 0.3 0.6 -0.3
v -0.3 0.7 0.3
v -0.1 0.7 0.3
v 0.1 0.7 0.3
v 0.3 0.7 0.3
v -0.3 0.7 0.2
v -0.1 0.7 0.2
v 0.1 0.7 0.2
v 0.3 0.7 0.2
v -0.7 0.7 -2.98023e-008
v -0.6 0.7 -2.98023e-008
v -0.7 0.7 -0.1
v -0.6 0.7 -0.1
v -0.2 0.8 -0.3
v 0.2 0.8 -0.3
v -0.2 0.8 -0.4
v 0.2 0.8 -0.4
v -0.2 0.9 0.3
v 0.2 0.9 0.3
v -0.2 0.9 0.2
v 0.2 0.9 0.2
v -0.6 0.9 -2.98023e-008
v -0.5 0.9 -2.98023e-008
v -0.6 0.9 -0.1
v -0.5 0.9 -0.1
v -0.2 1 0.2
v 0.2 1 0.2
v -0.2 1 0.1
v 0.1 1 0.1
v 0.2 1 0.1
v -0.3 1 -0.3
v -0.2 1 -0.3
v 0.2 1 -0.3
v 0.3 1 -0.3
v -0.3 1 -0.4
v -0.2 1 -0.4
v 0.2 1 -0.4
v 0.3 1 -0.4
v -0.4 0.5 -2.98023e-008
v -0.3 0.5 -2.98023e-008
v -0.4 0.5 -0.1
v -0.3 0.5 -0.1
v -0.2 0.7 0.2
v -0.1 0.7 0.2
v 0.1 0.7 0.2
v 0.2 0.7 0.2
v -0.2 0.7 0.1
v -0.1 0.7 0.1
v 0.1 0.7 0.1
v 0.2 0.7 0.1
v 0.3 0.7 0.1
v 0.4 0.7 0.1
v 0.3 0.7 -2.98023e-008
v 0.4 0.7 -2.98023e-008
v 0.3 0.7 -0.1
v 0.4 0.7 -0.1
v 0.3 0.7 -0.2
v 0.4 0.7 -0.2
v -0.2 0.8 0.3
v -0.1 0.8 0.3
v 0.1 0.8 0.3
v 0.2 0.8 0.3
v -0.2 0.8 0.2
v -0.1 0.8 0.2
v 0.1 0.8 0.2
v 0.2 0.8 0.2
v -0.6 1 -2.98023e-008
v -0.5 1 -2.98023e-008
v -0.6 1 -0.1
v -0.5 1 -0.1
v -0.3 1.1 0.3
v -0.2 1.1 0.3
v 0.2 1.1 0.3
v 0.3 1.1 0.3
v -0.3 1.1 0.2
v -0.2 1.1 0.2
v 0.2 1.1 0.2
v 0.3 1.1 0.2
v -0.7 1.1 -2.98023e-008
v -0.6 1.1 -2.98023e-008
v -0.7 1.1 -0.1
v -0.6 1.1 -0.1
v -0.2 1.2 0.3
v 0.2 1.2 0.3
v -0.3 1.2 0.2
v -0.2 1.2 0.2
v 0.2 1.2 0.2
v 0.3 1.2 0.2
v -0.3 1.2 0.1
v -0.2 1.2 0.1
v 0.2 1.2 0.1
v 0.3 1.2 0.1
v -0.3 1.2 -2.98023e-008
v -0.2 1.2 -2.98023e-008
v 0.2 1.2 -2.98023e-008
v 0.3 1.2 -2.98023e-008
v -0.3 1.2 -0.2
v -0.2 1.2 -0.2
v 0.2 1.2 -0.2
v 0.3 1.2 -0.2
v -0.2 1.2 -0.3
v 0.2 1.2 -0.3
v -0.3 1.2 -0.4
v 0.3 1.2 -0.4
v -0.2 1.3 0.2
v 0.2 1.3 0.2
v -0.3 1.3 -2.98023e-008
v -0.2 1.3 -2.98023e-008
v 0.2 1.3 -2.98023e-008
v 0.3 1.3 -2.98023e-008
v -0.3 1.3 -0.2
v -0.2 1.3 -0.2
v 0.2 1.3 -0.2
v 0.3 1.3 -0.2
v -0.2 1.3 -0.3
v 0.2 1.3 -0.3
v -0.5 1.4 -2.98023e-008
v -0.4 1.4 -2.98023e-008
v -0.5 1.4 -0.1
v -0.4 1.4 -0.1

# faces
f 3/9/1 2/9/1 1/9/1
f 4/9/1 2/9/1 3/9/1
f 7/6/1 6/6/1 5/6/1
f 8/6/1 6/6/1 7/6/1
f 9/10/1 8/10/1 7/10/1
f 10/10/1 8/10/1 9/10/1
f 11/6/1 10/6/1 9/6/1
f 12/6/1 10/6/1 11/6/1
f 15/9/1 14/9/1 13/9/1
f 16/9/1 14/9/1 15/9/1
f 20/2/1 18/2/1 17/2/1
f 21/2/1 18/2/1 20/2/1
f 24/2/1 20/2/1 19/2/1
f 24/2/1 22/2/1 21/2/1
f 24/2/1 21/2/1 20/2/1
f 25/2/1 22/2/1 24/2/1
f 26/9/1 25/9/1 24/9/1
f 28/10/1 24/10/1 23/10/1
f 29/9/1 27/9/1 26/9/1
f 29/10/1 24/10/1 28/10/1
f 29/9/1 26/9/1 24/9/1
f 30/9/1 27/9/1 29/9/1
f 31/10/1 30/10/1 29/10/1
f 32/9/1 27/9/1 30/9/1
f 32/10/1 30/10/1 31/10/1
f 33/9/1 27/9/1 32/9/1
f 34/9/1 27/9/1 33/9/1
f 35/9/1 27/9/1 34/9/1
f 36/9/1 34/9/1 33/9/1
f 37/9/1 34/9/1 36/9/1
f 40/11/1 39/11/1 38/11/1
f 41/11/1 39/11/1 40/11/1
f 42/10/1 41/10/1 40/10/1
f 43/10/1 41/10/1 42/10/1
f 45/3/1 43/3/1 42/3/1
f 46/3/1 43/3/1 45/3/1
f 48/10/1 46/10/1 45/10/1
f 48/10/1 47/10/1 46/10/1
f 48/10/1 45/10/1 44/10/1
f 49/10/1 47/10/1 48/10/1
f 50/11/1 49/11/1 48/11/1
f 51/10/1 47/10/1 49/10/1
f 51/11/1 49/11/1 50/11/1
f 52/10/1 47/10/1 51/10/1
f 53/11/1 50/11/1 48/11/1
f 54/11/1 50/11/1 53/11/1
f 55/11/1 52/11/1 51/11/1
f 56/11/1 52/11/1 55/11/1
f 59/9/1 58/9/1 57/9/1
f 60/9/1 58/9/1 59/9/1
f 63/10/1 62/10/1 61/10/1
f 64/10/1 62/10/1 63/10/1
f 69/9/1 65/9/1 64/9/1
f 69/9/1 66/9/1 65/9/1
f 70/9/1 66/9/1 69/9/1
f 71/9/1 68/9/1 67/9/1
f 72/9/1 68/9/1 71/9/1
f 75/11/1 74/11/1 73/11/1
f 76/11/1 74/11/1 75/11/1
f 77/10/1 76/10/1 75/10/1
f 78/10/1 76/10/1 77/10/1
f 79/3/1 78/3/1 77/3/1
f 80/3/1 78/3/1 79/3/1
f 84/2/1 82/2/1 81/2/1
f 85/2/1 82/2/1 84/2/1
f 86/10/1 84/10/1 83/10/1
f 87/10/1 84/10/1 86/10/1
f 91/9/1 89/9/1 88/9/1
f 92/9/1 89/9/1 91/9/1
f 93/10/1 91/10/1 90/10/1
f 94/9/1 92/9/1 91/9/1
f 94/10/1 91/10/1 93/10/1
f 95/9/1 92/9/1 94/9/1
f 96/9/1 95/9/1 94/9/1
f 97/9/1 95/9/1 96/9/1
f 98/9/2 99/9/2 100/9/2
f 100/9/2 99/9/2 101/9/2
f 102/9/2 103/9/2 104/9/2
f 104/9/2 103/9/2 105/9/2
f 106/6/2 107/6/2 108/6/2
f 108/6/2 107/6/2 109/6/2
f 108/10/2 109/10/2 110/10/2
f 110/10/2 109/10/2 111/10/2
f 112/6/2 113/6/2 114/6/2
f 114/6/2 113/6/2 115/6/2
f 114/10/2 115/10/2 116/10/2
f 116/10/2 115/10/2 117/10/2
f 116/9/2 117/9/2 118/9/2
f 118/9/2 117/9/2 119/9/2
f 120/2/2 121/2/2 122/2/2
f 122/2/2 121/2/2 123/2/2
f 124/9/2 125/9/2 127/9/2
f 127/9/2 125/9/2 128/9/2
f 126/10/2 127/10/2 129/10/2
f 127/9/2 128/9/2 130/9/2
f 129/10/2 127/10/2 130/10/2
f 130/9/2 128/9/2 131/9/2
f 130/9/2 131/9/2 132/9/2
f 132/9/2 131/9/2 133/9/2
f 134/11/2 135/11/2 136/11/2
f 136/11/2 135/11/2 137/11/2
f 136/10/2 137/10/2 138/10/2
f 138/10/2 137/10/2 139/10/2
f 138/3/2 139/3/2 140/3/2
f 140/3/2 139/3/2 141/3/2
f 142/2/2 143/2/2 145/2/2
f 145/2/2 143/2/2 146/2/2
f 144/10/2 145/10/2 147/10/2
f 147/10/2 145/10/2 148/10/2
f 149/11/2 150/11/2 151/11/2
f 151/11/2 150/11/2 152/11/2
f 151/10/2 152/10/2 153/10/2
f 153/10/2 152/10/2 154/10/2
f 153/3/2 154/3/2 156/3/2
f 156/3/2 154/3/2 157/3/2
f 155/10/2 156/10/2 159/10/2
f 159/10/2 156/10/2 160/10/2
f 157/10/2 158/10/2 161/10/2
f 161/10/2 158/10/2 162/10/2
f 162/10/2 158/10/2 163/10/2
f 159/11/2 160/11/2 164/11/2
f 164/11/2 160/11/2 165/11/2
f 162/11/2 163/11/2 166/11/2
f 166/11/2 163/11/2 167/11/2
f 168/9/2 169/9/2 170/9/2
f 170/9/2 169/9/2 171/9/2
f 172/10/2 173/10/2 174/10/2
f 174/10/2 173/10/2 175/10/2
f 175/9/2 176/9/2 180/9/2
f 176/9/2 177/9/2 180/9/2
f 180/9/2 177/9/2 181/9/2
f 178/9/2 179/9/2 182/9/2
f 182/9/2 179/9/2 183/9/2
f 184/10/2 185/10/2 186/10/2
f 186/10/2 185/10/2 187/10/2
f 186/2/2 187/2/2 190/2/2
f 190/2/2 187/2/2 191/2/2
f 188/2/2 189/2/2 195/2/2
f 195/2/2 189/2/2 196/2/2
f 192/2/2 193/2/2 199/2/2
f 199/2/2 193/2/2 200/2/2
f 197/9/2 198/9/2 201/9/2
f 195/9/2 196/9/2 201/9/2
f 199/9/2 200/9/2 201/9/2
f 198/9/2 199/9/2 201/9/2
f 196/9/2 197/9/2 201/9/2
f 194/10/2 195/10/2 203/10/2
f 195/9/2 201/9/2 204/9/2
f 203/10/2 195/10/2 204/10/2
f 201/9/2 202/9/2 204/9/2
f 204/9/2 202/9/2 205/9/2
f 204/10/2 205/10/2 206/10/2
f 205/9/2 202/9/2 207/9/2
f 206/10/2 205/10/2 207/10/2
f 207/9/2 202/9/2 208/9/2
f 208/9/2 202/9/2 209/9/2
f 209/9/2 202/9/2 210/9/2
f 208/9/2 209/9/2 211/9/2
f 211/9/2 209/9/2 212/9/2
f 213/10/2 214/10/2 217/10/2
f 214/11/2 215/11/2 218/11/2
f 217/10/2 214/10/2 218/10/2
f 215/10/2 216/10/2 219/10/2
f 218/11/2 215/11/2 219/11/2
f 219/10/2 216/10/2 220/10/2
f 223/10/3 222/10/3 221/10/3
f 224/10/3 222/10/3 223/10/3
f 225/10/3 222/10/3 224/10/3
f 227/10/3 223/10/3 221/10/3
f 228/10/3 223/10/3 227/10/3
f 231/10/3 230/10/3 229/10/3
f 232/10/3 226/10/3 225/10/3
f 232/10/3 225/10/3 224/10/3
f 233/10/3 226/10/3 232/10/3
f 234/10/3 226/10/3 233/10/3
f 235/10/3 231/10/3 229/10/3
f 235/10/3 232/10/3 231/10/3
f 235/10/3 233/10/3 232/10/3
f 236/10/3 233/10/3 235/10/3
f 241/10/3 240/10/3 239/10/3
f 242/10/3 240/10/3 241/10/3
f 244/2/3 238/2/3 237/2/3
f 245/2/3 238/2/3 244/2/3
f 249/9/3 243/9/3 242/9/3
f 250/9/3 243/9/3 249/9/3
f 251/2/3 247/2/3 246/2/3
f 252/2/3 247/2/3 251/2/3
f 253/10/3 249/10/3 248/10/3
f 254/10/3 249/10/3 253/10/3
f 262/10/3 256/10/3 255/10/3
f 263/11/3 257/11/3 256/11/3
f 263/10/3 256/10/3 262/10/3
f 264/11/3 257/11/3 263/11/3
f 265/11/3 257/11/3 264/11/3
f 266/7/3 259/7/3 258/7/3
f 267/13/3 260/13/3 259/13/3
f 267/7/3 259/7/3 266/7/3
f 268/4/3 261/4/3 260/4/3
f 268/13/3 260/13/3 267/13/3
f 269/3/3 263/3/3 262/3/3
f 270/10/3 264/10/3 263/10/3
f 270/3/3 263/3/3 269/3/3
f 271/11/3 265/11/3 264/11/3
f 271/10/3 264/10/3 270/10/3
f 271/11/3 266/11/3 265/11/3
f 272/11/3 266/11/3 271/11/3
f 273/8/3 267/8/3 266/8/3
f 273/11/3 266/11/3 272/11/3
f 274/7/3 268/7/3 267/7/3
f 274/8/3 267/8/3 273/8/3
f 275/4/3 261/4/3 268/4/3
f 275/7/3 268/7/3 274/7/3
f 276/4/3 261/4/3 275/4/3
f 277/10/3 270/10/3 269/10/3
f 278/11/3 272/11/3 271/11/3
f 278/10/3 270/10/3 277/10/3
f 278/11/3 271/11/3 270/11/3
f 279/11/3 272/11/3 278/11/3
f 280/8/3 274/8/3 273/8/3
f 281/13/3 275/13/3 274/13/3
f 281/8/3 274/8/3 280/8/3
f 282/5/3 276/5/3 275/5/3
f 282/13/3 275/13/3 281/13/3
f 283/5/3 276/5/3 282/5/3
f 286/10/3 285/10/3 284/10/3
f 287/10/3 285/10/3 286/10/3
f 290/9/3 289/9/3 288/9/3
f 291/9/3 289/9/3 290/9/3
f 292/9/3 289/9/3 291/9/3
f 293/9/3 289/9/3 292/9/3
f 297/9/3 292/9/3 291/9/3
f 298/9/3 292/9/3 297/9/3
f 300/6/3 295/6/3 294/6/3
f 301/10/3 296/10/3 295/10/3
f 301/6/3 295/6/3 300/6/3
f 302/6/3 297/6/3 296/6/3
f 302/10/3 296/10/3 301/10/3
f 303/6/3 297/6/3 302/6/3
f 304/10/3 298/10/3 297/10/3
f 304/6/3 297/6/3 303/6/3
f 305/9/3 299/9/3 298/9/3
f 305/10/3 298/10/3 304/10/3
f 306/9/3 299/9/3 305/9/3
f 307/2/3 303/2/3 302/2/3
f 308/2/3 303/2/3 307/2/3
f 316/2/3 309/2/3 308/2/3
f 317/2/3 309/2/3 316/2/3
f 318/9/3 311/9/3 310/9/3
f 319/9/3 311/9/3 318/9/3
f 320/11/3 313/11/3 312/11/3
f 321/10/3 314/10/3 313/10/3
f 321/11/3 313/11/3 320/11/3
f 322/3/3 315/3/3 314/3/3
f 322/10/3 314/10/3 321/10/3
f 323/3/3 315/3/3 322/3/3
f 328/11/3 325/11/3 324/11/3
f 329/10/3 326/10/3 325/10/3
f 329/11/3 325/11/3 328/11/3
f 330/3/3 327/3/3 326/3/3
f 330/10/3 326/10/3 329/10/3
f 331/3/3 327/3/3 330/3/3
f 336/10/3 332/10/3 331/10/3
f 337/2/3 333/2/3 332/2/3
f 337/10/3 332/10/3 336/10/3
f 338/2/3 333/2/3 337/2/3
f 339/9/3 335/9/3 334/9/3
f 340/9/3 335/9/3 339/9/3
f 341/10/4 342/10/4 345/10/4
f 345/10/4 342/10/4 346/10/4
f 347/10/4 348/10/4 349/10/4
f 349/10/4 348/10/4 350/10/4
f 343/10/4 344/10/4 351/10/4
f 351/10/4 344/10/4 352/10/4
f 353/9/4 354/9/4 355/9/4
f 355/9/4 354/9/4 356/9/4
f 356/9/4 354/9/4 357/9/4
f 357/9/4 354/9/4 358/9/4
f 356/9/4 357/9/4 362/9/4
f 362/9/4 357/9/4 363/9/4
f 359/6/4 360/6/4 365/6/4
f 360/10/4 361/10/4 366/10/4
f 365/6/4 360/6/4 366/6/4
f 361/6/4 362/6/4 367/6/4
f 366/10/4 361/10/4 367/10/4
f 367/6/4 362/6/4 368/6/4
f 362/10/4 363/10/4 369/10/4
f 368/6/4 362/6/4 369/6/4
f 363/9/4 364/9/4 370/9/4
f 369/10/4 363/10/4 370/10/4
f 370/9/4 364/9/4 371/9/4
f 367/2/4 368/2/4 372/2/4
f 372/2/4 368/2/4 373/2/4
f 373/2/4 374/2/4 379/2/4
f 379/2/4 374/2/4 380/2/4
f 375/11/4 376/11/4 381/11/4
f 376/10/4 377/10/4 382/10/4
f 381/11/4 376/11/4 382/11/4
f 377/3/4 378/3/4 383/3/4
f 382/10/4 377/10/4 383/10/4
f 383/3/4 378/3/4 384/3/4
f 385/11/4 386/11/4 389/11/4
f 386/10/4 387/10/4 390/10/4
f 389/11/4 386/11/4 390/11/4
f 387/3/4 388/3/4 391/3/4
f 390/10/4 387/10/4 391/10/4
f 391/3/4 388/3/4 392/3/4
f 392/10/4 393/10/4 396/10/4
f 394/2/4 395/2/4 397/2/4
f 396/10/4 393/10/4 397/10/4
f 393/2/4 394/2/4 397/2/4
f 397/2/4 395/2/4 398/2/4
f 399/9/4 400/9/4 404/9/4
f 404/9/4 400/9/4 405/9/4
f 401/10/4 402/10/4 406/10/4
f 402/11/4 403/11/4 407/11/4
f 406/10/4 402/10/4 407/10/4
f 401/10/4 406/10/4 408/10/4
f 406/11/4 407/11/4 408/11/4
f 407/11/4 403/11/4 409/11/4
f 408/11/4 407/11/4 409/11/4
f 401/10/4 408/10/4 410/10/4
f 408/10/4 409/10/4 410/10/4
f 409/11/4 403/11/4 411/11/4
f 410/10/4 409/10/4 411/10/4
f 411/11/4 403/11/4 412/11/4
f 413/9/4 414/9/4 417/9/4
f 417/9/4 414/9/4 418/9/4
f 415/10/4 416/10/4 419/10/4
f 419/10/4 416/10/4 420/10/4
f 422/9/4 423/9/4 424/9/4
f 424/9/4 423/9/4 425/9/4
f 422/9/4 424/9/4 428/9/4
f 426/9/4 427/9/4 430/9/4
f 430/9/4 427/9/4 431/9/4
f 421/2/4 422/2/4 432/2/4
f 428/9/4 429/9/4 433/9/4
f 432/2/4 422/2/4 433/2/4
f 422/9/4 428/9/4 433/9/4
f 433/9/4 429/9/4 434/9/4
f 435/9/4 436/9/4 438/9/4
f 437/9/4 438/9/4 439/9/4
f 438/9/4 436/9/4 440/9/4
f 439/9/4 438/9/4 440/9/4
f 440/9/4 436/9/4 441/9/4
f 441/9/4 436/9/4 442/9/4
f 449/6/5 444/6/5 443/6/5
f 450/6/5 444/6/5 449/6/5
f 451/11/5 446/11/5 445/11/5
f 452/11/5 446/11/5 451/11/5
f 453/11/5 448/11/5 447/11/5
f 454/11/5 448/11/5 453/11/5
f 459/10/5 456/10/5 455/10/5
f 460/3/5 457/3/5 456/3/5
f 460/10/5 456/10/5 459/10/5
f 461/10/5 458/10/5 457/10/5
f 461/3/5 457/3/5 460/3/5
f 462/10/5 458/10/5 461/10/5
f 465/3/5 461/3/5 460/3/5
f 466/3/5 461/3/5 465/3/5
f 467/10/5 463/10/5 462/10/5
f 468/10/5 463/10/5 467/10/5
f 469/10/5 466/10/5 465/10/5
f 469/10/5 465/10/5 464/10/5
f 469/10/5 467/10/5 466/10/5
f 470/10/5 467/10/5 469/10/5
f 473/2/5 472/2/5 471/2/5
f 474/2/5 472/2/5 473/2/5
f 477/2/5 476/2/5 475/2/5
f 478/2/5 476/2/5 477/2/5
f 483/2/5 480/2/5 479/2/5
f 484/2/5 480/2/5 483/2/5
f 485/2/5 482/2/5 481/2/5
f 486/2/5 482/2/5 485/2/5
f 487/2/5 482/2/5 486/2/5
f 489/2/5 483/2/5 479/2/5
f 490/2/5 483/2/5 489/2/5
f 491/2/5 487/2/5 486/2/5
f 492/10/5 488/10/5 487/10/5
f 492/2/5 487/2/5 491/2/5
f 493/10/5 488/10/5 492/10/5
f 497/11/5 493/11/5 492/11/5
f 498/11/5 493/11/5 497/11/5
f 499/2/5 495/2/5 494/2/5
f 500/2/5 497/2/5 496/2/5
f 501/10/5 498/10/5 497/10/5
f 501/2/5 497/2/5 500/2/5
f 502/10/5 498/10/5 501/10/5
f 503/2/5 499/2/5 494/2/5
f 503/2/5 500/2/5 499/2/5
f 503/2/5 501/2/5 500/2/5
f 504/2/5 501/2/5 503/2/5
f 509/10/5 506/10/5 505/10/5
f 510/10/5 506/10/5 509/10/5
f 511/10/5 508/10/5 507/10/5
f 512/10/5 508/10/5 511/10/5
f 515/9/5 514/9/5 513/9/5
f 516/9/5 514/9/5 515/9/5
f 519/9/5 518/9/5 517/9/5
f 520/9/5 518/9/5 519/9/5
f 523/10/5 522/10/5 521/10/5
f 524/10/5 522/10/5 523/10/5
f 527/9/5 526/9/5 525/9/5
f 528/9/5 526/9/5 527/9/5
f 531/9/5 530/9/5 529/9/5
f 532/9/5 530/9/5 531/9/5
f 533/9/5 530/9/5 532/9/5
f 538/9/5 535/9/5 534/9/5
f 539/9/5 535/9/5 538/9/5
f 540/9/5 537/9/5 536/9/5
f 541/9/5 537/9/5 540/9/5
f 542/2/6 543/2/6 544/2/6
f 544/2/6 543/2/6 545/2/6
f 546/2/6 547/2/6 550/2/6
f 550/2/6 547/2/6 551/2/6
f 548/2/6 549/2/6 552/2/6
f 552/2/6 549/2/6 553/2/6
f 554/10/6 555/10/6 556/10/6
f 556/10/6 555/10/6 557/10/6
f 556/11/6 557/11/6 558/11/6
f 558/11/6 557/11/6 559/11/6
f 558/10/6 559/10/6 560/10/6
f 560/10/6 559/10/6 561/10/6
f 562/10/6 563/10/6 566/10/6
f 566/10/6 563/10/6 567/10/6
f 564/10/6 565/10/6 568/10/6
f 568/10/6 565/10/6 569/10/6
f 570/9/6 571/9/6 572/9/6
f 572/9/6 571/9/6 573/9/6
f 574/10/6 575/10/6 578/10/6
f 578/10/6 575/10/6 579/10/6
f 576/10/6 577/10/6 580/10/6
f 580/10/6 577/10/6 581/10/6
f 582/9/6 583/9/6 584/9/6
f 584/9/6 583/9/6 585/9/6
f 586/10/6 587/10/6 589/10/6
f 589/10/6 587/10/6 590/10/6
f 588/10/6 589/10/6 592/10/6
f 592/10/6 589/10/6 593/10/6
f 590/10/6 591/10/6 594/10/6
f 594/10/6 591/10/6 595/10/6
f 592/9/6 593/9/6 596/9/6
f 596/9/6 593/9/6 597/9/6
f 594/9/6 595/9/6 598/9/6
f 598/9/6 595/9/6 599/9/6
f 600/9/6 601/9/6 604/9/6
f 602/9/6 603/9/6 605/9/6
f 600/9/6 604/9/6 606/9/6
f 604/9/6 605/9/6 606/9/6
f 605/9/6 603/9/6 607/9/6
f 606/9/6 605/9/6 607/9/6
f 608/9/6 609/9/6 611/9/6
f 611/9/6 609/9/6 612/9/6
f 610/9/6 611/9/6 614/9/6
f 612/9/6 613/9/6 614/9/6
f 611/9/6 612/9/6 614/9/6
f 614/9/6 613/9/6 615/9/6
f 615/9/6 613/9/6 616/9/6
f 616/9/6 613/9/6 617/9/6
f 615/9/6 616/9/6 618/9/6
f 618/9/6 616/9/6 619/9/6
f 620/9/6 621/9/6 622/9/6
f 622/9/6 621/9/6 623/9/6
