# MagicaVoxel @ Ephtracy

# group
o 

# material
mtllib weapon_Battleaxe.mtl
usemtl palette

# normals
vn -1 0 0
vn 1 0 0
vn 0 0 1
vn 0 0 -1
vn 0 -1 0
vn 0 1 0

# texcoords
vt 0.384766 0.5
vt 0.978516 0.5
vt 0.982422 0.5

# verts
v -0.2 0.9 -0.4
v -0.2 0.9 -0.5
v -0.2 1.4 -0.4
v -0.2 1.4 -0.5
v -0.1 0.8 -0.4
v -0.1 0.8 -0.5
v -0.1 0.9 -0.4
v -0.1 0.9 -0.5
v -0.1 1.4 -0.4
v -0.1 1.4 -0.5
v -0.1 1.5 -0.4
v -0.1 1.5 -0.5
v 0.1 0.4 -0.4
v 0.1 0.4 -0.5
v 0.1 1.1 -0.4
v 0.1 1.1 -0.5
v 0.1 1.2 -0.4
v 0.1 1.2 -0.5
v 0.1 1.3 -0.4
v 0.1 1.3 -0.5
v -0.1 0.9 -0.4
v -0.1 0.9 -0.5
v -0.1 1.1 -0.4
v -0.1 1.1 -0.5
v -0.1 1.2 -0.4
v -0.1 1.2 -0.5
v -0.1 1.3 -0.4
v -0.1 1.3 -0.5
v 0 0.8 -0.4
v 0 0.8 -0.5
v 0 0.9 -0.4
v 0 0.9 -0.5
v 0 1.3 -0.4
v 0 1.3 -0.5
v 0 1.5 -0.4
v 0 1.5 -0.5
v 0.2 0.4 -0.4
v 0.2 0.4 -0.5
v 0.2 1.1 -0.4
v 0.2 1.1 -0.5
v 0.2 1.2 -0.4
v 0.2 1.2 -0.5
v 0.2 1.3 -0.4
v 0.2 1.3 -0.5
v 0.3 1.1 -0.4
v 0.3 1.1 -0.5
v 0.3 1.2 -0.4
v 0.3 1.2 -0.5
v -0.2 0.9 -0.4
v -0.2 1.4 -0.4
v -0.1 0.8 -0.4
v -0.1 0.9 -0.4
v -0.1 1.1 -0.4
v -0.1 1.2 -0.4
v -0.1 1.3 -0.4
v -0.1 1.4 -0.4
v -0.1 1.5 -0.4
v 0 0.8 -0.4
v 0 0.9 -0.4
v 0 1.1 -0.4
v 0 1.2 -0.4
v 0 1.3 -0.4
v 0 1.5 -0.4
v 0.1 0.4 -0.4
v 0.1 1.1 -0.4
v 0.1 1.2 -0.4
v 0.1 1.3 -0.4
v 0.2 0.4 -0.4
v 0.2 1.1 -0.4
v 0.2 1.2 -0.4
v 0.2 1.3 -0.4
v 0.3 1.1 -0.4
v 0.3 1.2 -0.4
v -0.2 0.9 -0.5
v -0.2 1.4 -0.5
v -0.1 0.8 -0.5
v -0.1 0.9 -0.5
v -0.1 1.1 -0.5
v -0.1 1.2 -0.5
v -0.1 1.3 -0.5
v -0.1 1.4 -0.5
v -0.1 1.5 -0.5
v 0 0.8 -0.5
v 0 0.9 -0.5
v 0 1.1 -0.5
v 0 1.2 -0.5
v 0 1.3 -0.5
v 0 1.5 -0.5
v 0.1 0.4 -0.5
v 0.1 1.1 -0.5
v 0.1 1.2 -0.5
v 0.1 1.3 -0.5
v 0.2 0.4 -0.5
v 0.2 1.1 -0.5
v 0.2 1.2 -0.5
v 0.2 1.3 -0.5
v 0.3 1.1 -0.5
v 0.3 1.2 -0.5
v 0.1 0.4 -0.4
v 0.2 0.4 -0.4
v 0.1 0.4 -0.5
v 0.2 0.4 -0.5
v -0.1 0.8 -0.4
v 0 0.8 -0.4
v -0.1 0.8 -0.5
v 0 0.8 -0.5
v -0.2 0.9 -0.4
v -0.1 0.9 -0.4
v -0.2 0.9 -0.5
v -0.1 0.9 -0.5
v -0.1 1.1 -0.4
v 0 1.1 -0.4
v 0.1 1.1 -0.4
v 0.2 1.1 -0.4
v 0.3 1.1 -0.4
v -0.1 1.1 -0.5
v 0 1.1 -0.5
v 0.1 1.1 -0.5
v 0.2 1.1 -0.5
v 0.3 1.1 -0.5
v -0.1 1.3 -0.4
v 0 1.3 -0.4
v -0.1 1.3 -0.5
v 0 1.3 -0.5
v -0.1 0.9 -0.4
v 0 0.9 -0.4
v -0.1 0.9 -0.5
v 0 0.9 -0.5
v -0.1 1.2 -0.4
v 0 1.2 -0.4
v 0.1 1.2 -0.4
v 0.2 1.2 -0.4
v 0.3 1.2 -0.4
v -0.1 1.2 -0.5
v 0 1.2 -0.5
v 0.1 1.2 -0.5
v 0.2 1.2 -0.5
v 0.3 1.2 -0.5
v 0.1 1.3 -0.4
v 0.2 1.3 -0.4
v 0.1 1.3 -0.5
v 0.2 1.3 -0.5
v -0.2 1.4 -0.4
v -0.1 1.4 -0.4
v -0.2 1.4 -0.5
v -0.1 1.4 -0.5
v -0.1 1.5 -0.4
v 0 1.5 -0.4
v -0.1 1.5 -0.5
v 0 1.5 -0.5

# faces
f 3/2/1 2/2/1 1/2/1
f 4/2/1 2/2/1 3/2/1
f 7/2/1 6/2/1 5/2/1
f 8/2/1 6/2/1 7/2/1
f 11/2/1 10/2/1 9/2/1
f 12/2/1 10/2/1 11/2/1
f 15/1/1 14/1/1 13/1/1
f 16/1/1 14/1/1 15/1/1
f 19/3/1 18/3/1 17/3/1
f 20/3/1 18/3/1 19/3/1
f 21/2/2 22/2/2 23/2/2
f 23/2/2 22/2/2 24/2/2
f 25/2/2 26/2/2 27/2/2
f 27/2/2 26/2/2 28/2/2
f 29/2/2 30/2/2 31/2/2
f 31/2/2 30/2/2 32/2/2
f 33/2/2 34/2/2 35/2/2
f 35/2/2 34/2/2 36/2/2
f 37/1/2 38/1/2 39/1/2
f 39/1/2 38/1/2 40/1/2
f 41/3/2 42/3/2 43/3/2
f 43/3/2 42/3/2 44/3/2
f 45/3/2 46/3/2 47/3/2
f 47/3/2 46/3/2 48/3/2
f 52/2/3 50/2/3 49/2/3
f 53/2/3 50/2/3 52/2/3
f 54/2/3 50/2/3 53/2/3
f 55/2/3 50/2/3 54/2/3
f 56/2/3 50/2/3 55/2/3
f 58/2/3 52/2/3 51/2/3
f 59/2/3 52/2/3 58/2/3
f 60/2/3 54/2/3 53/2/3
f 61/2/3 54/2/3 60/2/3
f 62/2/3 57/2/3 56/2/3
f 62/2/3 56/2/3 55/2/3
f 63/2/3 57/2/3 62/2/3
f 65/3/3 61/3/3 60/3/3
f 66/3/3 61/3/3 65/3/3
f 68/1/3 65/1/3 64/1/3
f 69/3/3 67/3/3 66/3/3
f 69/1/3 65/1/3 68/1/3
f 69/3/3 66/3/3 65/3/3
f 70/3/3 67/3/3 69/3/3
f 71/3/3 67/3/3 70/3/3
f 72/3/3 70/3/3 69/3/3
f 73/3/3 70/3/3 72/3/3
f 74/2/4 75/2/4 77/2/4
f 77/2/4 75/2/4 78/2/4
f 78/2/4 75/2/4 79/2/4
f 79/2/4 75/2/4 80/2/4
f 80/2/4 75/2/4 81/2/4
f 76/2/4 77/2/4 83/2/4
f 83/2/4 77/2/4 84/2/4
f 78/2/4 79/2/4 85/2/4
f 85/2/4 79/2/4 86/2/4
f 81/2/4 82/2/4 87/2/4
f 80/2/4 81/2/4 87/2/4
f 87/2/4 82/2/4 88/2/4
f 85/3/4 86/3/4 90/3/4
f 90/3/4 86/3/4 91/3/4
f 89/1/4 90/1/4 93/1/4
f 91/3/4 92/3/4 94/3/4
f 93/1/4 90/1/4 94/1/4
f 90/3/4 91/3/4 94/3/4
f 94/3/4 92/3/4 95/3/4
f 95/3/4 92/3/4 96/3/4
f 94/3/4 95/3/4 97/3/4
f 97/3/4 95/3/4 98/3/4
f 101/1/5 100/1/5 99/1/5
f 102/1/5 100/1/5 101/1/5
f 105/2/5 104/2/5 103/2/5
f 106/2/5 104/2/5 105/2/5
f 109/2/5 108/2/5 107/2/5
f 110/2/5 108/2/5 109/2/5
f 116/2/5 112/2/5 111/2/5
f 117/3/5 113/3/5 112/3/5
f 117/2/5 112/2/5 116/2/5
f 118/3/5 113/3/5 117/3/5
f 119/3/5 115/3/5 114/3/5
f 120/3/5 115/3/5 119/3/5
f 123/2/5 122/2/5 121/2/5
f 124/2/5 122/2/5 123/2/5
f 125/2/6 126/2/6 127/2/6
f 127/2/6 126/2/6 128/2/6
f 129/2/6 130/2/6 134/2/6
f 130/3/6 131/3/6 135/3/6
f 134/2/6 130/2/6 135/2/6
f 135/3/6 131/3/6 136/3/6
f 132/3/6 133/3/6 137/3/6
f 137/3/6 133/3/6 138/3/6
f 139/3/6 140/3/6 141/3/6
f 141/3/6 140/3/6 142/3/6
f 143/2/6 144/2/6 145/2/6
f 145/2/6 144/2/6 146/2/6
f 147/2/6 148/2/6 149/2/6
f 149/2/6 148/2/6 150/2/6
