# MagicaVoxel @ Ephtracy

# group
o 

# material
mtllib weapon_Katana.mtl
usemtl palette

# normals
vn -1 0 0
vn 1 0 0
vn 0 0 1
vn 0 0 -1
vn 0 -1 0
vn 0 1 0

# texcoords
vt 0.384766 0.5
vt 0.974609 0.5
vt 0.986328 0.5

# verts
v -0.1 0.7 -0.4
v -0.1 0.7 -0.5
v -0.1 0.8 -0.4
v -0.1 0.8 -0.5
v 0 0.5 -0.4
v 0 0.5 -0.5
v 0 0.7 -0.4
v 0 0.7 -0.5
v 0 0.8 -0.4
v 0 0.8 -0.5
v 0 1.4 -0.4
v 0 1.4 -0.5
v 0.1 1.4 -0.4
v 0.1 1.4 -0.5
v 0.1 1.5 -0.4
v 0.1 1.5 -0.5
v 0.1 0.5 -0.4
v 0.1 0.5 -0.5
v 0.1 0.7 -0.4
v 0.1 0.7 -0.5
v 0.1 0.8 -0.4
v 0.1 0.8 -0.5
v 0.1 1.4 -0.4
v 0.1 1.4 -0.5
v 0.2 0.7 -0.4
v 0.2 0.7 -0.5
v 0.2 0.8 -0.4
v 0.2 0.8 -0.5
v 0.2 1.4 -0.4
v 0.2 1.4 -0.5
v 0.2 1.5 -0.4
v 0.2 1.5 -0.5
v -0.1 0.7 -0.4
v -0.1 0.8 -0.4
v 0 0.5 -0.4
v 0 0.7 -0.4
v 0 0.8 -0.4
v 0 1.4 -0.4
v 0.1 0.5 -0.4
v 0.1 0.7 -0.4
v 0.1 0.8 -0.4
v 0.1 1.4 -0.4
v 0.1 1.5 -0.4
v 0.2 0.7 -0.4
v 0.2 0.8 -0.4
v 0.2 1.4 -0.4
v 0.2 1.5 -0.4
v -0.1 0.7 -0.5
v -0.1 0.8 -0.5
v 0 0.5 -0.5
v 0 0.7 -0.5
v 0 0.8 -0.5
v 0 1.4 -0.5
v 0.1 0.5 -0.5
v 0.1 0.7 -0.5
v 0.1 0.8 -0.5
v 0.1 1.4 -0.5
v 0.1 1.5 -0.5
v 0.2 0.7 -0.5
v 0.2 0.8 -0.5
v 0.2 1.4 -0.5
v 0.2 1.5 -0.5
v 0 0.5 -0.4
v 0.1 0.5 -0.4
v 0 0.5 -0.5
v 0.1 0.5 -0.5
v -0.1 0.7 -0.4
v 0 0.7 -0.4
v 0.1 0.7 -0.4
v 0.2 0.7 -0.4
v -0.1 0.7 -0.5
v 0 0.7 -0.5
v 0.1 0.7 -0.5
v 0.2 0.7 -0.5
v 0.1 1.4 -0.4
v 0.2 1.4 -0.4
v 0.1 1.4 -0.5
v 0.2 1.4 -0.5
v -0.1 0.8 -0.4
v 0 0.8 -0.4
v 0.1 0.8 -0.4
v 0.2 0.8 -0.4
v -0.1 0.8 -0.5
v 0 0.8 -0.5
v 0.1 0.8 -0.5
v 0.2 0.8 -0.5
v 0 1.4 -0.4
v 0.1 1.4 -0.4
v 0 1.4 -0.5
v 0.1 1.4 -0.5
v 0.1 1.5 -0.4
v 0.2 1.5 -0.4
v 0.1 1.5 -0.5
v 0.2 1.5 -0.5

# faces
f 3/3/1 2/3/1 1/3/1
f 4/3/1 2/3/1 3/3/1
f 7/1/1 6/1/1 5/1/1
f 8/1/1 6/1/1 7/1/1
f 11/2/1 10/2/1 9/2/1
f 12/2/1 10/2/1 11/2/1
f 15/2/1 14/2/1 13/2/1
f 16/2/1 14/2/1 15/2/1
f 17/1/2 18/1/2 19/1/2
f 19/1/2 18/1/2 20/1/2
f 21/2/2 22/2/2 23/2/2
f 23/2/2 22/2/2 24/2/2
f 25/3/2 26/3/2 27/3/2
f 27/3/2 26/3/2 28/3/2
f 29/2/2 30/2/2 31/2/2
f 31/2/2 30/2/2 32/2/2
f 36/3/3 34/3/3 33/3/3
f 37/3/3 34/3/3 36/3/3
f 39/1/3 36/1/3 35/1/3
f 40/3/3 37/3/3 36/3/3
f 40/1/3 36/1/3 39/1/3
f 41/2/3 38/2/3 37/2/3
f 41/3/3 37/3/3 40/3/3
f 42/2/3 38/2/3 41/2/3
f 44/3/3 41/3/3 40/3/3
f 45/3/3 41/3/3 44/3/3
f 46/2/3 43/2/3 42/2/3
f 47/2/3 43/2/3 46/2/3
f 48/3/4 49/3/4 51/3/4
f 51/3/4 49/3/4 52/3/4
f 50/1/4 51/1/4 54/1/4
f 51/3/4 52/3/4 55/3/4
f 54/1/4 51/1/4 55/1/4
f 52/2/4 53/2/4 56/2/4
f 55/3/4 52/3/4 56/3/4
f 56/2/4 53/2/4 57/2/4
f 55/3/4 56/3/4 59/3/4
f 59/3/4 56/3/4 60/3/4
f 57/2/4 58/2/4 61/2/4
f 61/2/4 58/2/4 62/2/4
f 65/1/5 64/1/5 63/1/5
f 66/1/5 64/1/5 65/1/5
f 71/3/5 68/3/5 67/3/5
f 72/3/5 68/3/5 71/3/5
f 73/3/5 70/3/5 69/3/5
f 74/3/5 70/3/5 73/3/5
f 77/2/5 76/2/5 75/2/5
f 78/2/5 76/2/5 77/2/5
f 79/3/6 80/3/6 83/3/6
f 83/3/6 80/3/6 84/3/6
f 81/3/6 82/3/6 85/3/6
f 85/3/6 82/3/6 86/3/6
f 87/2/6 88/2/6 89/2/6
f 89/2/6 88/2/6 90/2/6
f 91/2/6 92/2/6 93/2/6
f 93/2/6 92/2/6 94/2/6
